<svg xmlns="http://www.w3.org/2000/svg" viewBox="0 0 4000 4000" style="enable-background:new 0 0 4000 4000" xml:space="preserve"><path style="fill-rule:evenodd;clip-rule:evenodd;fill:#fff" d="M0 0h4000v4000h-4000z"/><path style="fill-rule:evenodd;clip-rule:evenodd" d="M1712.9 2719.67c26.5-62.95 54.06-145.92 65.96-238.51 26.18-203.64 0-353.45-114.91-414.54-114.9-61.1-349.09-13.1-395.63 37.82-46.54 50.9-97.45-91.64 123.63-112 0 0-55.27-36.37-141.08-30.55-85.82 5.82-200.72 13.1-156.37-42.17 44.36-55.28 244.36-29.83 315.63-11.65 0 0-103.98-29.81-186.9-114.17-82.9-84.37-33.45-113.46 53.82-55.28 87.28 58.18 177.46 136.73 264.73 151.27 0 0-98.91-56.73-146.91-142.54-48-85.82-32-141.1 82.91-36.37 114.9 104.73 132.36 154.19 248.73 152.73 116.35-1.46-49.45-113.46-104.73-181.81-55.26-68.37-34.9-126.55-10.18-171.64 0 0 74.2 106.17 136.74 143.99 62.54 37.82 222.55 187.63 228.37 577.43 2.67 178.56 7.78 352.2 12.53 488h-276.33zm574.17 0c-26.5-62.95-54.05-145.92-65.96-238.51-26.18-203.64 0-353.45 114.92-414.54 114.9-61.1 349.08-13.1 395.63 37.82 46.54 50.9 97.45-91.64-123.63-112 0 0 55.27-36.37 141.08-30.55 85.82 5.82 200.72 13.1 156.36-42.17-44.35-55.28-244.35-29.83-315.63-11.65 0 0 103.99-29.81 186.9-114.17 82.91-84.37 33.46-113.46-53.82-55.28-87.27 58.18-177.45 136.73-264.72 151.27 0 0 98.91-56.73 146.91-142.54 48-85.82 32-141.1-82.91-36.37-114.9 104.73-132.36 154.19-248.72 152.73-116.37-1.46 49.45-113.46 104.71-181.81 55.27-68.37 34.92-126.55 10.19-171.64 0 0-74.2 106.17-136.74 143.99-62.54 37.82-222.56 187.63-228.38 577.43-2.66 178.56-7.76 352.2-12.52 488h276.33z"/><path style="fill-rule:evenodd;clip-rule:evenodd" d="M976.91 1671.47c46.89-14.87 100.24-3.72 137.42 33.46a135.9 135.9 0 0 1 36.97 124l-108.4-91.47 91.48 108.4a135.88 135.88 0 0 1-124-36.97c-37.19-37.18-48.34-90.53-33.47-137.42m157.14-177.23a136 136 0 0 1 137.42 33.46 135.88 135.88 0 0 1 36.97 124l-108.4-91.47 91.47 108.4a135.87 135.87 0 0 1-124-36.97 136.02 136.02 0 0 1-33.46-137.42m231.27-48a136 136 0 0 1 137.42 33.46 135.88 135.88 0 0 1 36.97 124l-108.4-91.47 91.47 108.4a135.88 135.88 0 0 1-124-36.97 136 136 0 0 1-33.46-137.42m-354.17 744.51c46.88 14.87 100.23 3.72 137.41-33.46a135.9 135.9 0 0 0 36.98-124l-108.4 91.47 91.47-108.4a135.88 135.88 0 0 0-124 36.97c-37.19 37.18-48.34 90.54-33.46 137.42m-186.87-240.1a135.98 135.98 0 0 0 120.82 73.51 135.9 135.9 0 0 0 113.83-61.54l-141.33-11.97 141.33-11.97a135.9 135.9 0 0 0-113.83-61.54 135.98 135.98 0 0 0-120.82 73.51m991.55-625.13a136 136 0 0 0-137.42 33.46 135.88 135.88 0 0 0-36.97 124l108.4-91.48-91.47 108.4a135.88 135.88 0 0 0 124-36.96 136.02 136.02 0 0 0 33.46-137.42m-988.88 862.69a84.82 84.82 0 0 0 108.75-98.19l-67.6 57.04 57.04-67.6a84.74 84.74 0 0 0-77.33 23.06 84.81 84.81 0 0 0-20.86 85.7m-23.34-477.47a84.8 84.8 0 0 1 85.7 20.87c21 21 28.68 50.27 23.05 77.33l-67.6-57.05 57.04 67.6a84.73 84.73 0 0 1-77.33-23.05 84.8 84.8 0 0 1-20.86-85.7m135.27-219.63a84.81 84.81 0 0 1 108.75 98.19l-67.6-57.04 57.04 67.6a84.73 84.73 0 0 1-77.32-23.06 84.8 84.8 0 0 1-20.87-85.7m235.88-159.84a84.81 84.81 0 0 1 85.7 20.87c21 21 28.68 50.27 23.05 77.32l-67.6-57.04 57.04 67.6a84.73 84.73 0 0 1-77.33-23.06 84.82 84.82 0 0 1-20.86-85.7m326.28-106.76a122.16 122.16 0 0 1 91.87 87.73 122.06 122.06 0 0 1-26.93 113.06l-43.24-119.83 22.47 125.4a122.06 122.06 0 0 1-79.85-84.44 122.15 122.15 0 0 1 35.68-121.92m245.34-25.6a84.82 84.82 0 0 0-85.7 20.88 84.74 84.74 0 0 0-23.06 77.32l67.6-57.04-57.04 67.6a84.73 84.73 0 0 0 77.33-23.06 84.81 84.81 0 0 0 20.87-85.7m-400.57 67.82a84.8 84.8 0 0 1 77.37 42.33 84.75 84.75 0 0 1 2.26 80.66l-50.53-72.6 37.6 80.07a84.75 84.75 0 0 1-68.72-42.29 84.8 84.8 0 0 1 2.02-88.17m-364.03 61.45a84.81 84.81 0 0 1 85.7 20.87c21 21 28.68 50.27 23.05 77.32l-67.6-57.04 57.05 67.6a84.75 84.75 0 0 1-77.33-23.06 84.81 84.81 0 0 1-20.87-85.7m888.62 191.04a84.8 84.8 0 0 0-85.7 20.88 84.73 84.73 0 0 0-23.05 77.33l67.6-57.05-57.05 67.6a84.73 84.73 0 0 0 77.33-23.05 84.8 84.8 0 0 0 20.86-85.7m1152.69 152.26c-46.88-14.87-100.24-3.72-137.42 33.46a135.9 135.9 0 0 0-36.97 124l108.4-91.47-91.47 108.4a135.88 135.88 0 0 0 124-36.97 135.99 135.99 0 0 0 33.46-137.42m-157.14-177.23a136 136 0 0 0-137.41 33.46 135.88 135.88 0 0 0-36.97 124l108.4-91.47-91.47 108.4a135.87 135.87 0 0 0 124-36.97 136 136 0 0 0 33.45-137.42m-231.27-48a136 136 0 0 0-137.41 33.46 135.88 135.88 0 0 0-36.97 124l108.4-91.47-91.48 108.4a135.88 135.88 0 0 0 124-36.97 136 136 0 0 0 33.46-137.42m354.18 744.51c-46.89 14.87-100.24 3.72-137.42-33.46a135.9 135.9 0 0 1-36.97-124l108.4 91.47-91.47-108.4a135.88 135.88 0 0 1 124 36.97c37.18 37.18 48.33 90.54 33.46 137.42m186.87-240.1c-22.64 43.67-68.25 73.51-120.83 73.51a135.9 135.9 0 0 1-113.83-61.54l141.34-11.97-141.34-11.97a135.9 135.9 0 0 1 113.83-61.54 136 136 0 0 1 120.83 73.51m-991.56-625.13a136 136 0 0 1 137.42 33.46 135.88 135.88 0 0 1 36.97 124l-108.4-91.48 91.47 108.4a135.88 135.88 0 0 1-124-36.96 136 136 0 0 1-33.46-137.42m988.88 862.69a84.82 84.82 0 0 1-108.75-98.19l67.6 57.04-57.04-67.6a84.81 84.81 0 0 1 98.2 108.75m23.33-477.46a84.8 84.8 0 0 0-85.69 20.87 84.73 84.73 0 0 0-23.05 77.33l67.6-57.05-57.05 67.6a84.73 84.73 0 0 0 77.33-23.05 84.8 84.8 0 0 0 20.86-85.7m-135.27-219.63a84.81 84.81 0 0 0-108.75 98.19l67.6-57.04-57.04 67.6a84.73 84.73 0 0 0 77.33-23.06 84.8 84.8 0 0 0 20.86-85.7m-235.87-159.84a84.81 84.81 0 0 0-85.7 20.87 84.73 84.73 0 0 0-23.05 77.32l67.6-57.04-57.05 67.6a84.73 84.73 0 0 0 77.33-23.06 84.82 84.82 0 0 0 20.87-85.7m-326.29-106.76a122.16 122.16 0 0 0-91.86 87.73 122.06 122.06 0 0 0 26.92 113.06l43.25-119.83-22.47 125.4a122.06 122.06 0 0 0 79.85-84.44 122.16 122.16 0 0 0-35.69-121.92m-245.33-25.6a84.82 84.82 0 0 1 85.7 20.88c21 21 28.68 50.27 23.05 77.32l-67.6-57.04 57.04 67.6a84.73 84.73 0 0 1-77.33-23.06 84.81 84.81 0 0 1-20.86-85.7m400.56 67.82a84.8 84.8 0 0 0-77.37 42.33 84.75 84.75 0 0 0-2.26 80.66l50.53-72.6-37.6 80.07a84.75 84.75 0 0 0 68.73-42.29 84.8 84.8 0 0 0-2.03-88.17m364.03 61.45a84.82 84.82 0 0 0-85.7 20.87 84.74 84.74 0 0 0-23.05 77.32l67.6-57.04-57.04 67.6a84.82 84.82 0 0 0 98.2-108.75m-888.62 191.03a84.8 84.8 0 0 1 85.7 20.88c21 21 28.68 50.27 23.05 77.33l-67.6-57.05 57.04 67.6a84.73 84.73 0 0 1-77.32-23.05 84.8 84.8 0 0 1-20.87-85.7m-33.6 107.51c-46.88-14.87-100.23-3.72-137.41 33.46a135.88 135.88 0 0 0-36.98 124l108.4-91.47-91.47 108.4a135.9 135.9 0 0 0 124.01-36.97 136.01 136.01 0 0 0 33.46-137.42m-205.74-247.35c46.89-14.87 100.24-3.72 137.42 33.46a135.9 135.9 0 0 1 36.97 124l-108.4-91.47 91.48 108.4a135.88 135.88 0 0 1-124.01-36.97c-37.18-37.18-48.33-90.53-33.46-137.42m300.83-213.85a136 136 0 0 0-137.42 33.46 135.88 135.88 0 0 0-36.97 124l108.4-91.47-91.47 108.4a135.88 135.88 0 0 0 124-36.97c37.19-37.18 48.33-90.53 33.46-137.42m-402.9-75.66a136 136 0 0 1 137.42 33.45 135.87 135.87 0 0 1 36.96 124l-108.4-91.47 91.48 108.4a135.88 135.88 0 0 1-124-36.97c-37.19-37.18-48.33-90.53-33.46-137.41m293.01-96.93a84.8 84.8 0 0 0-77.37 42.34 84.74 84.74 0 0 0-2.26 80.65l50.54-72.59-37.61 80.06a84.74 84.74 0 0 0 68.73-42.29 84.8 84.8 0 0 0-2.03-88.17m-561.96-27.15c46.89-14.87 100.24-3.72 137.42 33.46a135.9 135.9 0 0 1 36.97 124l-108.4-91.47 91.48 108.4a135.88 135.88 0 0 1-124.01-36.97c-37.18-37.18-48.33-90.54-33.46-137.42m191.96-74.68a84.81 84.81 0 0 1 77.38 42.34 84.74 84.74 0 0 1 2.25 80.66l-50.53-72.6 37.6 80.06a84.82 84.82 0 0 1-66.7-130.46m-361.89 179.06a84.82 84.82 0 0 1 85.7 20.87c21 21 28.68 50.27 23.05 77.33l-67.6-57.05 57.05 67.6a84.73 84.73 0 0 1-77.33-23.06 84.81 84.81 0 0 1-20.87-85.7m819.28-88.34a135.99 135.99 0 0 1 137.41 33.46 135.87 135.87 0 0 1 36.97 124l-108.4-91.47 91.48 108.4a135.87 135.87 0 0 1-124-36.97c-37.19-37.18-48.33-90.53-33.46-137.42m397.77 35.35a135.97 135.97 0 0 0-137.41 33.45 135.87 135.87 0 0 0-36.98 124l108.4-91.47-91.47 108.4a135.9 135.9 0 0 0 124-36.97c37.19-37.18 48.33-90.53 33.46-137.41m-120.34-165.17a84.79 84.79 0 0 0-77.37 42.33 84.74 84.74 0 0 0-2.26 80.66l50.53-72.6-37.6 80.06a84.74 84.74 0 0 0 68.73-42.28 84.8 84.8 0 0 0-2.03-88.17m-485.8 25.23a84.82 84.82 0 0 0-79.63 123l50.53-72.6-37.6 80.06a84.82 84.82 0 0 0 66.7-130.46m76.8-53.02a84.82 84.82 0 0 1 79.63 122.99l-50.53-72.6 37.6 80.06a84.82 84.82 0 0 1-66.7-130.46m698.32 284.56a84.82 84.82 0 0 0-108.75 98.19l67.6-57.04-57.05 67.6a84.74 84.74 0 0 0 77.33-23.06 84.82 84.82 0 0 0 20.87-85.7m-113.63-263.8a136 136 0 0 1 102.27 97.68c12.33 46-.47 92.82-29.98 125.88l-48.14-133.42 25.02 139.62a135.9 135.9 0 0 1-88.9-94.03c-13.62-50.79 3.4-102.57 39.73-135.73m298.71 2009.66v201.66h-49.13v-120.94l-45.1 120.94h-39.65l-45.39-121.23v121.23h-49.12v-201.66h58.03l56.6 139.61 56.01-139.61h57.75zm-382.66 0v120.65c0 12.07 2.97 21.36 8.91 27.87 5.93 6.51 14.65 9.76 26.14 9.76 11.5 0 20.3-3.25 26.43-9.76 6.13-6.51 9.2-15.8 9.2-27.87v-120.65h49.12v120.36c0 18-3.83 33.23-11.5 45.68a73.64 73.64 0 0 1-30.88 28.16c-12.92 6.32-27.33 9.48-43.23 9.48-15.9 0-30.12-3.12-42.66-9.34-12.54-6.22-22.45-15.61-29.73-28.15-7.28-12.55-10.92-27.82-10.92-45.82v-120.37h49.12zm-151.96 203.67c-14.75 0-27.96-2.4-39.65-7.18-11.68-4.78-21.01-11.87-28-21.26-7-9.38-10.68-20.68-11.07-33.9h52.29c.76 7.48 3.35 13.17 7.75 17.1 4.4 3.93 10.15 5.89 17.24 5.89 7.28 0 13.03-1.68 17.24-5.03 4.2-3.35 6.32-8 6.32-13.93 0-4.98-1.68-9.1-5.03-12.35a40.6 40.6 0 0 0-12.35-8.05c-4.89-2.1-11.83-4.5-20.83-7.18-13.02-4.02-23.65-8.04-31.89-12.07-8.23-4.02-15.32-9.95-21.25-17.8-5.94-7.86-8.9-18.1-8.9-30.75 0-18.77 6.79-33.46 20.39-44.1 13.6-10.62 31.3-15.94 53.14-15.94 22.22 0 40.12 5.32 53.72 15.95 13.6 10.63 20.87 25.42 21.84 44.38h-53.15c-.39-6.51-2.78-11.63-7.18-15.37-4.41-3.73-10.06-5.6-16.96-5.6-5.93 0-10.72 1.58-14.36 4.74-3.64 3.16-5.45 7.7-5.45 13.64 0 6.51 3.06 11.6 9.18 15.23 6.14 3.64 15.71 7.56 28.73 11.78 13.03 4.4 23.61 8.62 31.75 12.64 8.14 4.02 15.18 9.86 21.11 17.52s8.91 17.53 8.91 29.6c0 11.48-2.92 21.92-8.76 31.3-5.84 9.39-14.32 16.86-25.43 22.4-11.1 5.57-24.22 8.34-39.35 8.34zm-176.39-113.47c9.38 0 16.38-2.2 20.97-6.6 4.6-4.4 6.9-10.64 6.9-18.68s-2.3-14.27-6.9-18.67c-4.6-4.4-11.59-6.6-20.97-6.6h-26.72v50.55h26.72zm77.85-25.28c0 11.69-2.68 22.36-8.04 32.04-5.36 9.66-13.6 17.47-24.7 23.4-11.12 5.94-24.9 8.91-41.37 8.91h-30.45v72.4h-49.13v-201.68h79.58c16.08 0 29.68 2.78 40.79 8.34 11.11 5.55 19.44 13.21 25 22.98 5.55 9.76 8.32 20.97 8.32 33.61zm-189.31-64.92v201.66h-49.13v-201.66h49.13zm-84.46 0v201.66h-49.12v-120.94l-45.1 120.94h-39.65l-45.39-121.23v121.23h-49.12v-201.66h58.03l56.59 139.61 56.02-139.61h57.74zm-334.68 39.36v40.79h65.8v37.92h-65.8v44.24h74.4v39.35h-123.52v-201.67h123.53v39.36h-74.4zm-187.3 51.41h30.45c9 0 15.75-2.2 20.25-6.6 4.5-4.4 6.76-10.63 6.76-18.68 0-7.65-2.25-13.69-6.76-18.1-4.5-4.4-11.25-6.6-20.25-6.6h-30.45v49.99zm53.72 110.9-41.94-76.13h-11.78v76.12h-49.13v-201.67h82.45c15.9 0 29.45 2.78 40.65 8.34 11.2 5.55 19.59 13.17 25.14 22.84 5.55 9.67 8.33 20.44 8.33 32.31 0 13.4-3.78 25.38-11.34 35.92-7.57 10.53-18.72 18-33.47 22.4l46.53 79.86h-55.44zm-233.26-42.8c16.09 0 28.96-5.37 38.64-16.1 9.67-10.72 14.5-24.9 14.5-42.51 0-17.82-4.83-32.04-14.5-42.67-9.68-10.62-22.55-15.94-38.64-15.94-16.28 0-29.25 5.27-38.93 15.8-9.67 10.53-14.5 24.8-14.5 42.8 0 17.82 4.83 32.04 14.5 42.67 9.67 10.62 22.65 15.94 38.93 15.94zm0 44.8c-18.96 0-36.35-4.4-52.14-13.2s-28.35-21.12-37.64-36.93c-9.28-15.8-13.93-33.56-13.93-53.28 0-19.73 4.65-37.45 13.93-53.15a99.2 99.2 0 0 1 37.63-36.77c15.8-8.81 33.19-13.22 52.15-13.22s36.34 4.4 52.14 13.22a97.08 97.08 0 0 1 37.34 36.77c9.1 15.7 13.65 33.42 13.65 53.15 0 19.72-4.6 37.48-13.8 53.28a97.97 97.97 0 0 1-37.34 36.92c-15.7 8.8-33.03 13.21-52 13.21zm1258.33 41.72h-9.11v74.2h11.97v-52.36l42.1 52.37h9v-74.21h-11.87v52.8l-42.09-52.8zm-98.37 47.81h-31.38l15.7-35.3 15.68 35.3zm11.45 26.4h12.61l-33.28-74.21h-12.94l-33.28 74.2h12.61l7-15.58h40.17l7.1 15.59zm-128.8-64.78c-7.56-7.5-16.71-11.23-27.46-11.23-12.16 0-21.7 3.8-28.62 11.4-6.93 7.59-10.39 17-10.39 28.24 0 5.1.78 9.85 2.33 14.26a37.72 37.72 0 0 0 6.9 11.98c3.03 3.57 7.12 6.4 12.24 8.48 5.12 2.09 10.97 3.13 17.54 3.13 11.6 0 21.31-4.3 29.16-12.93v-30.43h-31.7v10.6h20.67v15.06a27.42 27.42 0 0 1-18.13 6.57c-9.05 0-15.86-2.58-20.46-7.74-4.6-5.16-6.9-11.48-6.9-18.97-.06-8.13 2.38-14.95 7.33-20.46 4.94-5.51 11.62-8.27 20.03-8.27 3.54 0 7.12.69 10.77 2.07a25.78 25.78 0 0 1 9.27 5.88l7.42-7.64zm-195.05 28.2c0-8.34 2.31-15.12 6.94-20.35s11.11-7.85 19.46-7.85c5.72.07 10.61 1.54 14.68 4.4 4.06 2.87 6.96 6.34 8.7 10.44a34 34 0 0 1 2.59 13.36c0 7.78-2.2 14.26-6.58 19.45-4.37 5.2-10.91 7.8-19.6 7.8-4.4 0-8.3-.8-11.72-2.39a21.69 21.69 0 0 1-8.22-6.36 28.68 28.68 0 0 1-4.6-8.7 33.74 33.74 0 0 1-1.65-9.8zm26.4-39.01c-11.17 0-20.32 3.66-27.46 10.97-7.14 7.31-10.71 16.63-10.71 27.94 0 5.01.8 9.77 2.38 14.25a39.3 39.3 0 0 0 6.9 12.14c3 3.61 6.97 6.49 11.92 8.64 4.95 2.16 10.54 3.24 16.75 3.24 6.22 0 11.8-1.04 16.75-3.13 4.95-2.09 8.93-4.93 11.93-8.53 3-3.6 5.3-7.7 6.89-12.25a43.6 43.6 0 0 0 2.38-14.47c0-10.74-3.28-19.88-9.85-27.4-6.58-7.53-15.87-11.33-27.88-11.4zm-148.95 1.38v74.2h51v-11.02h-39.12v-63.18h-11.88zm-71.55 10.39c-5.23-8.34-14.45-12.51-27.67-12.51-3.53 0-6.93.4-10.18 1.22-3.24.8-6.29 2.03-9.11 3.65a18.63 18.63 0 0 0-6.79 6.68 18.6 18.6 0 0 0-2.54 9.76c0 3.04.55 5.74 1.64 8.1a17.5 17.5 0 0 0 4.14 5.79 21.67 21.67 0 0 0 6.51 3.8 53.85 53.85 0 0 0 7.69 2.45c2.44.56 5.35 1.06 8.75 1.48 5.93.78 10.58 2.07 13.94 3.87 3.36 1.8 5.03 4.58 5.03 8.32 0 2.9-.96 5.32-2.91 7.26a15.04 15.04 0 0 1-6.95 3.98 35.2 35.2 0 0 1-8.9 1.06c-10.6 0-18.3-4.06-23.11-12.2l-8.9 5.95c6.07 11.23 16.71 16.85 31.9 16.85 5.52 0 10.48-.73 14.9-2.17a24.93 24.93 0 0 0 11.23-7.48c3.08-3.53 4.62-7.95 4.62-13.25 0-3.95-.8-7.37-2.39-10.23a17.12 17.12 0 0 0-6.94-6.78 43 43 0 0 0-9.22-3.77 94.86 94.86 0 0 0-11.24-2.22c-5.87-.85-10.34-2.02-13.41-3.5-3.08-1.48-4.62-3.85-4.62-7.1 0-3.47 1.6-6.2 4.78-8.22 3.18-2.02 7.3-3.02 12.4-3.02 3.89.07 7.47.83 10.76 2.28a17.58 17.58 0 0 1 7.58 5.99l9.01-6.04zm-150.1.42c4.59 0 8.09 1.36 10.5 4.08 2.4 2.72 3.6 5.92 3.6 9.6 0 3.74-1.2 6.88-3.6 9.43-2.41 2.55-5.94 3.82-10.6 3.82h-22.6v-26.93h22.7zm28.2 61.27-22.16-24.7c6.85-.98 11.92-3.62 15.2-7.9 3.3-4.27 4.94-9.34 4.94-15.2 0-6.65-2.31-12.36-6.94-17.13-4.63-4.76-11.04-7.15-19.25-7.15-3.8 0-9.57-.02-17.28-.06-7.7-.03-13.46-.05-17.27-.05v74.32h11.87v-25.66h15.69l22.58 25.66h13.9l-1.29-2.13zm-147.14-71.98v43.36c0 6.93-1.91 12.28-5.73 16.06-3.81 3.79-8.76 5.5-14.84 5.15-5.65-.22-10.21-2.16-13.68-5.84-3.46-3.67-5.19-8.8-5.19-15.37v-43.35h-11.77v43.35c0 10.04 2.92 17.85 8.75 23.43 5.83 5.59 13.13 8.48 21.9 8.7 9.4.35 17.13-2.28 23.2-7.9 6.09-5.63 9.12-13.7 9.12-24.23v-43.36h-11.76zm-183.4 37.53c0-8.34 2.32-15.12 6.95-20.35 4.63-5.23 11.11-7.85 19.45-7.85 5.73.07 10.62 1.54 14.69 4.4 4.06 2.87 6.96 6.34 8.7 10.44a34.18 34.18 0 0 1 2.59 13.36c0 7.78-2.2 14.26-6.58 19.45-4.38 5.2-10.91 7.8-19.6 7.8-4.4 0-8.3-.8-11.73-2.39a21.63 21.63 0 0 1-8.21-6.36 28.58 28.58 0 0 1-4.61-8.7 33.77 33.77 0 0 1-1.64-9.8zm26.4-39.01c-11.16 0-20.31 3.66-27.45 10.97-7.14 7.31-10.71 16.63-10.71 27.94 0 5.01.8 9.77 2.38 14.25s3.9 8.54 6.9 12.14c3 3.61 6.97 6.49 11.92 8.64 4.95 2.16 10.53 3.24 16.75 3.24 6.22 0 11.8-1.04 16.75-3.13 4.95-2.09 8.93-4.93 11.93-8.53 3-3.6 5.3-7.7 6.89-12.25a43.57 43.57 0 0 0 2.39-14.47c0-10.74-3.3-19.88-9.87-27.4-6.57-7.53-15.87-11.33-27.88-11.4zm-149.57 1.38h-14.1v.53l28.62 43.25v30.43h11.88v-30.43l29.47-43.25v-.53h-14.31l-21.1 32.76-20.46-32.76zm-261.14-81.65h64.35v37.92h-113.47v-201.67h49.12v163.75z"/></svg>