<?xml version="1.0" encoding="utf-8"?>
<!-- Generator: Adobe Illustrator 27.5.0, SVG Export Plug-In . SVG Version: 6.00 Build 0)  -->
<svg version="1.1" id="Layer_1" xmlns="http://www.w3.org/2000/svg" xmlns:xlink="http://www.w3.org/1999/xlink" x="0px" y="0px"
	 viewBox="0 0 4000 4000" style="enable-background:new 0 0 4000 4000;" xml:space="preserve">
<g>
	<rect style="fill-rule:evenodd;clip-rule:evenodd;fill:#FFFFFF;" width="4000" height="4000"/>
	<path style="fill-rule:evenodd;clip-rule:evenodd;" d="M869.026,2104.271c125.768,125.768,251.537,251.536,377.305,377.305
		c251.222-251.22,502.446-502.446,753.667-753.666c251.22,251.22,502.445,502.446,753.666,753.666
		c125.768-125.768,251.537-251.537,377.305-377.305l-121.555-121.55l-255.75,255.751
		c-251.221-251.222-502.442-502.446-753.666-753.666c-251.225,251.22-502.445,502.445-753.667,753.666l-255.75-255.751
		L869.026,2104.271z"/>
	<polygon style="fill-rule:evenodd;clip-rule:evenodd;" points="1090.979,1882.323 1212.528,2003.873 1346.729,2138.073 
		1471.704,2147.262 1468.279,2016.524 1334.083,1882.323 1212.528,1760.773 	"/>
	<path style="fill-rule:evenodd;clip-rule:evenodd;" d="M1999.998,973.303c-231.662,231.657-463.318,463.318-694.975,694.975
		l121.55,121.55c191.14-191.14,382.28-382.28,573.425-573.42v-0.005c191.14,191.145,382.285,382.285,573.425,573.425l121.55-121.55
		C2463.315,1436.621,2231.659,1204.96,1999.998,973.303"/>
	<polygon style="fill-rule:evenodd;clip-rule:evenodd;" points="2909.015,1882.323 2787.467,2003.873 2653.265,2138.073 
		2528.29,2147.262 2531.716,2016.524 2665.912,1882.323 2787.467,1760.773 	"/>
	<polygon style="fill-rule:evenodd;clip-rule:evenodd;" points="1625.078,2217.996 2374.917,2217.996 2203.014,2046.099 
		1796.981,2046.099 	"/>
	<polygon style="fill-rule:evenodd;clip-rule:evenodd;" points="1150.573,2500.992 807.071,2157.491 753.855,2104.274 
		1999.998,858.128 3246.14,2104.274 3192.925,2157.491 2849.422,2500.992 2811.254,2539.161 2835.707,2563.619 2879.442,2607.349 
		3314.327,2172.462 3382.515,2104.274 3314.327,2036.088 2068.184,789.94 1999.998,721.753 1931.811,789.94 685.668,2036.088 
		617.48,2104.274 685.668,2172.462 1120.554,2607.349 1164.288,2563.619 1188.741,2539.161 	"/>
	<path style="fill-rule:evenodd;clip-rule:evenodd;" d="M3402.498,2788.667v307.29h-74.853v-184.29l-68.725,184.29h-60.406
		l-69.165-184.725v184.725h-74.853v-307.29h88.427l86.23,212.74l85.365-212.74H3402.498z M2819.432,2788.667v183.845
		c0,18.388,4.525,32.536,13.573,42.463c9.047,9.922,22.322,14.882,39.837,14.882c17.503,0,30.93-4.96,40.27-14.882
		c9.335-9.927,14.003-24.075,14.003-42.463v-183.845h74.858v183.405c0,27.435-5.84,50.632-17.513,69.6
		c-11.675,18.97-27.36,33.27-47.055,42.903c-19.702,9.628-41.655,14.447-65.878,14.447c-24.222,0-45.887-4.749-65.002-14.23
		s-34.215-23.781-45.308-42.896c-11.088-19.115-16.633-42.388-16.633-69.823v-183.405H2819.432z M2587.874,3099.022
		c-22.469,0-42.604-3.652-60.405-10.947c-17.802-7.293-32.027-18.093-42.677-32.39c-10.658-14.3-16.27-31.517-16.857-51.656h79.668
		c1.167,11.382,5.107,20.07,11.815,26.05c6.718,5.982,15.468,8.967,26.263,8.967c11.093,0,19.852-2.55,26.268-7.653
		c6.42-5.112,9.628-12.188,9.628-21.235c0-7.583-2.552-13.862-7.658-18.818c-5.107-4.965-11.382-9.047-18.822-12.26
		c-7.447-3.207-18.025-6.86-31.74-10.942c-19.842-6.127-36.032-12.255-48.585-18.387c-12.548-6.128-23.343-15.175-32.39-27.137
		c-9.053-11.963-13.573-27.577-13.573-46.843c0-28.592,10.36-50.99,31.082-67.19c20.717-16.195,47.711-24.293,80.98-24.293
		c33.852,0,61.135,8.098,81.855,24.293c20.717,16.2,31.805,38.74,33.27,67.63h-80.982c-0.585-9.922-4.232-17.727-10.945-23.42
		c-6.715-5.688-15.322-8.537-25.825-8.537c-9.047,0-16.346,2.41-21.888,7.223c-5.545,4.82-8.315,11.745-8.315,20.793
		c0,9.92,4.668,17.658,14.003,23.205c9.345,5.542,23.935,11.523,43.777,17.943c19.843,6.713,35.967,13.135,48.368,19.262
		c12.407,6.128,23.127,15.028,32.173,26.703c9.052,11.673,13.573,26.702,13.573,45.085c0,17.508-4.45,33.415-13.355,47.712
		c-8.897,14.3-21.813,25.682-38.737,34.143C2630.919,3094.785,2610.929,3099.022,2587.874,3099.022z M2319.102,2926.114
		c14.302,0,24.955-3.355,31.962-10.069c7.001-6.708,10.502-16.195,10.502-28.45c0-12.26-3.5-21.747-10.502-28.455
		c-7.007-6.713-17.66-10.068-31.962-10.068h-40.705v77.042H2319.102z M2437.732,2887.595c0,17.802-4.087,34.068-12.255,48.803
		c-8.173,14.735-20.722,26.627-37.648,35.673c-16.924,9.048-37.937,13.573-63.034,13.573h-46.398v110.312h-74.853v-307.29h121.251
		c24.515,0,45.237,4.228,62.16,12.693c16.927,8.462,29.622,20.137,38.083,35.013
		C2433.504,2851.26,2437.732,2868.334,2437.732,2887.595z M2149.266,2788.667v307.29h-74.853v-307.29H2149.266z M2020.572,2788.667
		v307.29h-74.848v-184.29l-68.727,184.29h-60.407l-69.165-184.725v184.725h-74.853v-307.29h88.422l86.235,212.74l85.36-212.74
		H2020.572z M1510.611,2848.634v62.158h100.241v57.785h-100.241v67.412h113.372v59.968h-188.227v-307.29h188.227v59.967H1510.611z
		 M1225.204,2926.992h46.403c13.715,0,24.005-3.363,30.86-10.072c6.86-6.708,10.288-16.192,10.288-28.45
		c0-11.675-3.428-20.868-10.288-27.577c-6.855-6.713-17.145-10.073-30.86-10.073h-46.403V2926.992z M1307.064,3095.957
		l-63.908-116.003h-17.952v116.003h-74.848v-307.29h125.63c24.224,0,44.863,4.228,61.938,12.693
		c17.068,8.462,29.838,20.065,38.305,34.797c8.457,14.74,12.69,31.157,12.69,49.247c0,20.428-5.763,38.668-17.287,54.718
		c-11.528,16.048-28.532,27.43-51,34.143l70.913,121.692H1307.064z M951.628,3030.735c24.51,0,44.135-8.173,58.875-24.52
		c14.737-16.342,22.102-37.937,22.102-64.78c0-27.142-7.365-48.808-22.102-65.008c-14.74-16.19-34.365-24.293-58.875-24.293
		c-24.808,0-44.58,8.027-59.32,24.077c-14.735,16.053-22.1,37.795-22.1,65.225c0,27.142,7.365,48.808,22.1,65.003
		C907.048,3022.634,926.82,3030.735,951.628,3030.735z M951.628,3099.022c-28.895,0-55.38-6.719-79.45-20.14
		c-24.077-13.422-43.192-32.173-57.345-56.248c-14.155-24.072-21.232-51.142-21.232-81.198s7.077-57.052,21.232-80.982
		c14.153-23.928,33.268-42.61,57.345-56.032c24.07-13.427,50.555-20.135,79.45-20.135c28.89,0,55.37,6.708,79.445,20.135
		c24.077,13.422,43.045,32.103,56.912,56.032c13.857,23.93,20.787,50.925,20.787,80.982s-7.002,57.126-21.015,81.198
		c-14.002,24.075-32.972,42.827-56.9,56.248C1006.928,3092.304,980.518,3099.022,951.628,3099.022z M2869.014,3162.58h-13.888
		v113.078h18.25v-79.805l64.133,79.805h13.725V3162.58h-18.09v80.447L2869.014,3162.58z M2719.119,3235.435h-47.812l23.907-53.797
		L2719.119,3235.435z M2736.565,3275.659h19.223l-50.72-113.078h-19.712l-50.72,113.078h19.219l10.668-23.75h61.218
		L2736.565,3275.659z M2540.314,3176.957c-11.528-11.42-25.473-17.127-41.844-17.127c-18.525,0-33.062,5.792-43.616,17.367
		c-10.55,11.575-15.832,25.928-15.832,43.053c0,7.753,1.187,14.995,3.553,21.723c2.377,6.732,5.872,12.817,10.502,18.255
		c4.63,5.438,10.852,9.747,18.657,12.927c7.81,3.173,16.72,4.762,26.737,4.762c17.658,0,32.47-6.567,44.428-19.705v-46.366h-48.308
		v16.158h31.503v22.942c-7.967,6.67-17.174,10.012-27.624,10.012c-13.781,0-24.175-3.932-31.177-11.793
		c-6.997-7.862-10.498-17.498-10.498-28.913c-0.108-12.382,3.61-22.78,11.145-31.177c7.54-8.403,17.712-12.6,30.53-12.6
		c5.385,0,10.852,1.05,16.398,3.147c5.542,2.103,10.257,5.088,14.13,8.967L2540.314,3176.957z M2243.097,3219.925
		c0-12.705,3.523-23.047,10.582-31.017c7.048-7.97,16.933-11.952,29.636-11.952c8.727,0.108,16.185,2.338,22.38,6.703
		c6.188,4.365,10.602,9.662,13.242,15.912c2.642,6.245,3.96,13.03,3.96,20.353c0,11.848-3.336,21.727-10.017,29.645
		c-6.675,7.913-16.638,11.868-29.882,11.868c-6.68,0-12.633-1.21-17.853-3.633c-5.22-2.42-9.396-5.65-12.515-9.69
		c-3.123-4.04-5.467-8.452-7.03-13.247C2244.037,3230.077,2243.206,3225.094,2243.097,3219.925z M2283.315,3160.477
		c-17.013,0-30.955,5.575-41.835,16.72c-10.875,11.145-16.318,25.332-16.318,42.567c0,7.645,1.21,14.887,3.638,21.728
		c2.423,6.837,5.925,13.002,10.498,18.495c4.576,5.495,10.633,9.88,18.173,13.168c7.537,3.283,16.05,4.927,25.527,4.927
		c9.477,0,17.982-1.592,25.517-4.767c7.545-3.18,13.597-7.511,18.18-13.001c4.573-5.499,8.073-11.717,10.491-18.662
		c2.428-6.95,3.638-14.295,3.638-22.048c0-16.37-5.009-30.289-15.019-41.76C2315.786,3166.379,2301.627,3160.585,2283.315,3160.477z
		 M2056.374,3162.58v113.078h77.693v-16.8h-59.603v-96.278H2056.374z M1947.344,3178.412c-7.97-12.71-22.02-19.063-42.16-19.063
		c-5.387,0-10.55,0.618-15.512,1.857c-4.95,1.238-9.585,3.098-13.888,5.575c-4.31,2.475-7.758,5.866-10.338,10.177
		c-2.583,4.308-3.878,9.263-3.878,14.862c0,4.63,0.832,8.745,2.503,12.355c1.668,3.61,3.772,6.548,6.303,8.807
		c2.527,2.258,5.843,4.2,9.93,5.815c4.097,1.612,7.998,2.853,11.712,3.713c3.718,0.865,8.16,1.617,13.328,2.263
		c9.047,1.185,16.125,3.152,21.245,5.897c5.112,2.745,7.673,6.973,7.673,12.68c0,4.417-1.478,8.102-4.442,11.065
		c-2.962,2.961-6.492,4.983-10.587,6.056c-4.087,1.077-8.613,1.615-13.563,1.615c-16.158,0-27.893-6.188-35.222-18.577
		l-13.563,9.048c9.26,17.12,25.47,25.687,48.618,25.687c8.4,0,15.965-1.112,22.697-3.317c6.732-2.207,12.44-6,17.122-11.387
		c4.687-5.385,7.03-12.118,7.03-20.192c0-6.028-1.21-11.23-3.638-15.587c-2.418-4.365-5.943-7.808-10.578-10.342
		c-4.63-2.527-9.317-4.44-14.05-5.735c-4.743-1.29-10.45-2.423-17.122-3.392c-8.943-1.29-15.755-3.072-20.437-5.33
		c-4.687-2.263-7.03-5.866-7.03-10.823c0-5.277,2.428-9.448,7.27-12.52c4.843-3.07,11.145-4.605,18.903-4.605
		c5.918,0.108,11.385,1.265,16.393,3.477c5.007,2.207,8.858,5.248,11.55,9.124L1947.344,3178.412z M1718.616,3179.054
		c7.002,0,12.332,2.075,15.998,6.218c3.66,4.147,5.488,9.023,5.488,14.622c0,5.707-1.828,10.501-5.488,14.377
		c-3.667,3.878-9.048,5.82-16.158,5.82h-34.408v-41.037H1718.616z M1761.589,3272.427l-33.765-37.64
		c10.45-1.512,18.175-5.522,23.183-12.037c5.007-6.515,7.512-14.245,7.512-23.178c0-10.12-3.525-18.817-10.583-26.088
		c-7.053-7.267-16.823-10.903-29.32-10.903c-5.81,0-14.588-0.028-26.328-0.08c-11.74-0.057-20.518-0.085-26.33-0.085v113.243h18.09
		v-39.095h23.907l34.406,39.095h21.167L1761.589,3272.427z M1537.388,3162.74v66.072c0,10.548-2.91,18.708-8.725,24.472
		c-5.812,5.76-13.347,8.372-22.612,7.833c-8.617-0.327-15.562-3.283-20.838-8.887c-5.278-5.598-7.913-13.408-7.913-23.418v-66.072
		h-17.935v66.072c0,15.292,4.447,27.193,13.328,35.697c8.887,8.509,20.003,12.927,33.358,13.249
		c14.325,0.538,26.112-3.479,35.377-12.038c9.26-8.562,13.895-20.858,13.895-36.907v-66.072H1537.388z M1257.944,3219.925
		c0-12.705,3.525-23.047,10.583-31.017c7.048-7.97,16.932-11.952,29.635-11.952c8.727,0.108,16.187,2.338,22.38,6.703
		c6.188,4.365,10.602,9.662,13.242,15.912c2.642,6.245,3.96,13.03,3.96,20.353c0,11.848-3.335,21.727-10.017,29.645
		c-6.675,7.913-16.638,11.868-29.882,11.868c-6.68,0-12.632-1.21-17.853-3.633c-5.22-2.42-9.392-5.65-12.515-9.69
		c-3.122-4.04-5.465-8.452-7.03-13.247C1258.884,3230.077,1258.053,3225.094,1257.944,3219.925z M1298.163,3160.477
		c-17.012,0-30.953,5.575-41.835,16.72c-10.875,11.145-16.317,25.332-16.317,42.567c0,7.645,1.213,14.887,3.636,21.728
		c2.423,6.837,5.925,13.002,10.498,18.495c4.578,5.495,10.635,9.88,18.175,13.168c7.535,3.283,16.048,4.927,25.525,4.927
		c9.478,0,17.982-1.592,25.517-4.767c7.545-3.18,13.597-7.511,18.18-13.001c4.573-5.499,8.073-11.717,10.493-18.662
		c2.428-6.95,3.637-14.295,3.637-22.048c0-16.37-5.007-30.289-15.018-41.76C1330.634,3166.379,1316.474,3160.585,1298.163,3160.477z
		 M1070.253,3162.58h-21.487v0.807l43.617,65.912v46.36h18.093v-46.36l44.907-65.912v-0.807h-21.808l-32.145,49.913
		L1070.253,3162.58z M672.35,3038.172h98.055v57.785H597.496v-307.29h74.853V3038.172z"/>
</g>
</svg>
