<svg xmlns="http://www.w3.org/2000/svg" viewBox="0 0 4000 4000" style="enable-background:new 0 0 4000 4000" xml:space="preserve"><path style="fill-rule:evenodd;clip-rule:evenodd;fill:#fff" d="M0 0h4000v4000h-4000z"/><path style="fill-rule:evenodd;clip-rule:evenodd" d="m869.03 2104.27 377.3 377.3 753.67-753.66 753.66 753.67 377.3-377.3-121.55-121.56-255.75 255.75-753.66-753.66-753.67 753.66-255.75-255.75-121.55 121.55z"/><path style="fill-rule:evenodd;clip-rule:evenodd" d="m1090.98 1882.32 121.55 121.55 134.2 134.2 124.97 9.2-3.42-130.75-134.2-134.2-121.55-121.55zm909.02-909.02-694.98 694.98 121.55 121.55 573.43-573.42 573.42 573.42 121.55-121.55-694.97-694.98m909.01 909.02-121.54 121.55-134.2 134.2-124.98 9.2 3.43-130.75 134.2-134.2 121.55-121.55zm-1283.93 335.68h749.84l-171.9-171.9h-406.04z"/><path style="fill-rule:evenodd;clip-rule:evenodd" d="m1150.57 2501-343.5-343.5-53.22-53.23 1246.15-1246.14 1246.14 1246.14-53.21 53.22-343.5 343.5-38.18 38.17 24.46 24.46 43.73 43.73 434.89-434.89 68.18-68.19-68.18-68.18-1246.15-1246.15-68.18-68.19-68.19 68.19-1246.14 1246.15-68.19 68.18 68.19 68.2 434.88 434.88 43.74-43.73 24.45-24.46zm2251.93 287.67v307.29h-74.85v-184.3l-68.73 184.3h-60.4l-69.17-184.73v184.73h-74.85v-307.3h88.42l86.23 212.75 85.37-212.74h87.98zm-583.07 0v183.84c0 18.39 4.53 32.54 13.57 42.46 9.05 9.93 22.33 14.89 39.84 14.89 17.5 0 30.93-4.96 40.27-14.89 9.34-9.92 14-24.07 14-42.46v-183.84h74.86v183.4c0 27.44-5.84 50.63-17.51 69.6-11.68 18.97-27.36 33.27-47.05 42.9-19.7 9.63-41.66 14.45-65.88 14.45-24.23 0-45.89-4.75-65-14.23s-34.22-23.78-45.31-42.9c-11.1-19.1-16.64-42.38-16.64-69.82v-183.4h74.85zm-231.56 310.35c-22.47 0-42.6-3.65-60.4-10.95-17.8-7.29-32.03-18.09-42.68-32.39-10.66-14.3-16.27-31.51-16.86-51.65h79.67c1.17 11.38 5.11 20.07 11.82 26.05 6.72 5.98 15.47 8.97 26.26 8.97 11.1 0 19.85-2.55 26.27-7.66 6.42-5.1 9.63-12.18 9.63-21.23 0-7.58-2.56-13.86-7.66-18.82-5.1-4.96-11.38-9.05-18.82-12.26-7.45-3.2-18.03-6.86-31.74-10.94-19.85-6.13-36.04-12.26-48.59-18.39-12.55-6.13-23.34-15.17-32.39-27.14-9.05-11.96-13.57-27.57-13.57-46.84 0-28.6 10.36-50.99 31.08-67.19 20.72-16.2 47.71-24.3 80.98-24.3 33.85 0 61.14 8.1 81.86 24.3 20.71 16.2 31.8 38.74 33.27 67.63h-80.99c-.58-9.92-4.23-17.73-10.94-23.42-6.72-5.69-15.32-8.54-25.83-8.54-9.04 0-16.34 2.41-21.88 7.23-5.55 4.82-8.32 11.74-8.32 20.79 0 9.92 4.67 17.66 14 23.2 9.35 5.55 23.94 11.53 43.78 17.95 19.84 6.71 35.97 13.13 48.37 19.26 12.4 6.13 23.13 15.03 32.17 26.7 9.05 11.68 13.57 26.7 13.57 45.09 0 17.5-4.44 33.41-13.35 47.71-8.9 14.3-21.81 25.68-38.74 34.14-16.92 8.46-36.91 12.7-59.97 12.7zm-268.77-172.9c14.3 0 24.96-3.36 31.96-10.07 7-6.71 10.5-16.2 10.5-28.46 0-12.25-3.5-21.74-10.5-28.45-7-6.71-17.66-10.07-31.96-10.07h-40.7v77.04h40.7zm118.63-38.53c0 17.8-4.09 34.07-12.25 48.8-8.18 14.74-20.73 26.63-37.65 35.68-16.93 9.05-37.94 13.57-63.04 13.57h-46.4v110.32h-74.85v-307.3h121.25c24.52 0 45.24 4.23 62.16 12.7 16.93 8.46 29.63 20.14 38.09 35.01 8.46 14.89 12.7 31.96 12.7 51.22zm-288.46-98.92v307.29h-74.86v-307.3h74.86zm-128.7 0v307.29h-74.85v-184.3l-68.72 184.3h-60.41l-69.17-184.73v184.73h-74.85v-307.3h88.42l86.24 212.75 85.36-212.74h87.98zm-509.96 59.96v62.16h100.24v57.79h-100.24v67.4h113.37v59.98h-188.22v-307.3h188.22v59.97h-113.37zm-285.4 78.36h46.4c13.71 0 24-3.36 30.86-10.07 6.86-6.7 10.28-16.2 10.28-28.45 0-11.67-3.42-20.87-10.28-27.58-6.86-6.71-17.15-10.07-30.86-10.07h-46.4v76.17zm81.85 168.97-63.9-116h-17.96v116h-74.84v-307.3h125.63c24.22 0 44.86 4.24 61.93 12.7 17.07 8.46 29.84 20.07 38.3 34.8 8.47 14.74 12.7 31.15 12.7 49.24 0 20.43-5.76 38.67-17.29 54.72-11.53 16.05-28.53 27.43-51 34.14l70.92 121.7h-84.49zm-355.43-65.22c24.5 0 44.13-8.18 58.87-24.52 14.74-16.35 22.1-37.94 22.1-64.78 0-27.15-7.36-48.81-22.1-65.01-14.74-16.2-34.36-24.3-58.87-24.3-24.81 0-44.58 8.03-59.32 24.08-14.74 16.05-22.1 37.8-22.1 65.23 0 27.14 7.36 48.8 22.1 65 14.74 16.2 34.51 24.3 59.32 24.3zm0 68.28c-28.9 0-55.38-6.72-79.45-20.14-24.08-13.42-43.2-32.17-57.35-56.25-14.15-24.07-21.23-51.14-21.23-81.2s7.08-57.05 21.23-80.98c14.16-23.92 33.27-42.6 57.35-56.03 24.07-13.43 50.55-20.13 79.45-20.13 28.89 0 55.37 6.7 79.44 20.13a147.88 147.88 0 0 1 56.92 56.03c13.85 23.93 20.78 50.93 20.78 80.99s-7 57.12-21.01 81.2c-14 24.07-32.97 42.82-56.9 56.24-23.93 13.42-50.34 20.14-79.23 20.14zm1917.38 63.56h-13.88v113.08h18.25v-79.8l64.13 79.8h13.72v-113.08h-18.09v80.45l-64.13-80.45zm-149.9 72.86h-47.8l23.9-53.8 23.9 53.8zm17.45 40.22h19.23l-50.72-113.08h-19.71l-50.72 113.08h19.22l10.66-23.75h61.22l10.83 23.75zm-196.25-98.7c-11.52-11.42-25.47-17.13-41.84-17.13-18.52 0-33.06 5.8-43.62 17.37-10.55 11.57-15.83 25.93-15.83 43.05 0 7.75 1.19 15 3.55 21.72a57.4 57.4 0 0 0 10.5 18.26c4.64 5.44 10.86 9.75 18.66 12.93 7.81 3.17 16.72 4.76 26.74 4.76 17.66 0 32.47-6.57 44.43-19.7v-46.37h-48.3v16.15h31.5v22.95a41.77 41.77 0 0 1-27.63 10c-13.78 0-24.17-3.92-31.18-11.78-7-7.87-10.5-17.5-10.5-28.92-.1-12.38 3.62-22.78 11.15-31.17 7.54-8.4 17.71-12.6 30.53-12.6a46.3 46.3 0 0 1 16.4 3.14 39.43 39.43 0 0 1 14.13 8.97l11.31-11.63zm-297.21 42.97c0-12.71 3.52-23.05 10.58-31.02 7.05-7.97 16.93-11.95 29.64-11.95 8.72.1 16.18 2.33 22.37 6.7 6.2 4.36 10.6 9.66 13.25 15.91a51.7 51.7 0 0 1 3.96 20.35c0 11.85-3.34 21.73-10.02 29.65-6.67 7.91-16.64 11.87-29.88 11.87-6.68 0-12.63-1.21-17.85-3.64-5.22-2.42-9.4-5.65-12.52-9.69a43.61 43.61 0 0 1-7.03-13.24 51.4 51.4 0 0 1-2.5-14.94zm40.22-59.45c-17.02 0-30.96 5.57-41.84 16.72-10.88 11.14-16.32 25.33-16.32 42.56 0 7.65 1.21 14.9 3.64 21.73 2.42 6.84 5.92 13 10.5 18.5 4.57 5.5 10.63 9.88 18.17 13.16 7.54 3.29 16.05 4.93 25.53 4.93 9.47 0 17.98-1.59 25.51-4.77 7.55-3.17 13.6-7.5 18.18-13a59.54 59.54 0 0 0 10.5-18.66 66.35 66.35 0 0 0 3.63-22.05c0-16.37-5-30.28-15.02-41.76-10.01-11.46-24.17-17.26-42.49-17.36zm-226.95 2.1v113.08h77.7v-16.8h-59.6v-96.28h-18.1zm-109.03 15.83c-7.97-12.7-22.02-19.06-42.16-19.06-5.38 0-10.55.62-15.5 1.86a53.93 53.93 0 0 0-13.9 5.57 28.29 28.29 0 0 0-10.33 10.18c-2.59 4.3-3.88 9.26-3.88 14.86 0 4.63.83 8.74 2.5 12.35a26.5 26.5 0 0 0 6.3 8.81c2.53 2.26 5.85 4.2 9.93 5.82 4.1 1.6 8 2.85 11.72 3.71 3.71.86 8.16 1.62 13.32 2.26 9.05 1.19 16.13 3.15 21.25 5.9 5.11 2.74 7.67 6.97 7.67 12.68a15 15 0 0 1-4.44 11.06 22.94 22.94 0 0 1-10.59 6.06 53.22 53.22 0 0 1-13.56 1.62c-16.16 0-27.9-6.2-35.22-18.58l-13.56 9.05c9.25 17.12 25.46 25.68 48.61 25.68 8.4 0 15.97-1.1 22.7-3.31 6.73-2.21 12.44-6 17.12-11.39 4.69-5.39 7.03-12.12 7.03-20.2 0-6.02-1.2-11.22-3.64-15.58a26.05 26.05 0 0 0-10.57-10.34 65.28 65.28 0 0 0-14.05-5.74 146.46 146.46 0 0 0-17.13-3.39c-8.94-1.29-15.75-3.07-20.43-5.33-4.69-2.26-7.03-5.86-7.03-10.82 0-5.28 2.43-9.45 7.27-12.52 4.84-3.07 11.14-4.6 18.9-4.6 5.92.1 11.38 1.26 16.4 3.47 5 2.2 8.85 5.25 11.54 9.12l13.73-9.2zm-228.72.64c7 0 12.33 2.08 16 6.22a21.4 21.4 0 0 1 5.48 14.62c0 5.71-1.83 10.5-5.49 14.38-3.66 3.88-9.04 5.82-16.15 5.82h-34.41v-41.04h34.57zm42.97 93.38-33.77-37.64c10.45-1.51 18.18-5.52 23.19-12.04 5-6.51 7.5-14.24 7.5-23.18a36.14 36.14 0 0 0-10.57-26.09c-7.06-7.26-16.83-10.9-29.32-10.9-5.81 0-14.6-.03-26.33-.08a5929.4 5929.4 0 0 0-26.33-.08v113.24h18.09v-39.1h23.9l34.41 39.1h21.17l-1.94-3.23zm-224.2-109.69v66.07c0 10.55-2.91 18.71-8.73 24.47-5.8 5.76-13.34 8.38-22.6 7.84-8.63-.33-15.57-3.29-20.85-8.89-5.28-5.6-7.91-13.4-7.91-23.42v-66.07h-17.93v66.07c0 15.3 4.44 27.2 13.32 35.7 8.89 8.5 20 12.93 33.36 13.25 14.33.54 26.11-3.48 35.38-12.04 9.26-8.56 13.9-20.86 13.9-36.9v-66.08h-17.94zm-279.45 57.19c0-12.71 3.53-23.05 10.59-31.02 7.05-7.97 16.93-11.95 29.63-11.95 8.73.1 16.19 2.33 22.38 6.7 6.19 4.36 10.6 9.66 13.24 15.91a51.7 51.7 0 0 1 3.96 20.35c0 11.85-3.33 21.73-10.01 29.65-6.68 7.91-16.64 11.87-29.88 11.87-6.68 0-12.64-1.21-17.86-3.64-5.22-2.42-9.39-5.65-12.51-9.69a43.68 43.68 0 0 1-7.03-13.24 51.4 51.4 0 0 1-2.5-14.94zm40.22-59.45c-17 0-30.95 5.57-41.83 16.72-10.88 11.14-16.32 25.33-16.32 42.56a64.6 64.6 0 0 0 3.64 21.73c2.42 6.84 5.92 13 10.5 18.5 4.57 5.5 10.63 9.88 18.17 13.16 7.54 3.29 16.05 4.93 25.52 4.93 9.48 0 17.99-1.59 25.52-4.77 7.55-3.17 13.6-7.5 18.18-13a59.58 59.58 0 0 0 10.5-18.66 66.35 66.35 0 0 0 3.63-22.05c0-16.37-5-30.28-15.02-41.76-10.02-11.46-24.18-17.26-42.49-17.36zm-227.9 2.1h-21.5v.8l43.62 65.92v46.36h18.1v-46.36l44.9-65.91v-.81h-21.8l-32.15 49.91-31.18-49.91zm-397.91-124.4h98.06v57.78h-172.91v-307.3h74.85v249.51z"/></svg>