<svg xmlns="http://www.w3.org/2000/svg" viewBox="0 0 4000 4000" style="enable-background:new 0 0 4000 4000" xml:space="preserve"><path style="fill-rule:evenodd;clip-rule:evenodd;fill:#fff" d="M0 0h4000v4000h-4000z"/><path style="fill-rule:evenodd;clip-rule:evenodd" d="M1830.46 1386.24c87.6-21.83 157.73 5 157.73 5-116.14-36.96-346.89 62.35-271.57 185.29 85.55 139.63 261.34-70.74 300.8-94.53 29.13-17.58 59.69-25.76 88.4-28.5 70.57-6.76 130.01 19.27 130.01 19.27-100.3-100.72-195.44-152.4-281.7-170.97-69.95-15.07-134.05-8.37-190.3 11.58-33.73 11.96-62.53 26.16-98.05 47.99-165.23 101.53-275.42 283.95-275.42 492.1 0 318.76 258.4 577.16 577.16 577.16s577.17-258.4 577.17-577.16c0-303.64-234.49-552.52-532.26-575.43 60.16 22.04 123.8 55.23 182.58 105.03 162.31 72.4 275.44 235.18 275.44 424.38 0 256.52-207.94 464.46-464.46 464.46-256.51 0-464.46-207.94-464.46-464.46 0-134.75 57.39-256.1 149.06-340.94 41.17-38.1 83.43-66.21 139.87-80.27"/><path style="fill-rule:evenodd;clip-rule:evenodd" d="M2964.51 1560.98c28.9 178.76-36.49 314.43-36.49 314.43 93.37-225.93-66.37-703.85-324.76-573.94-293.47 147.56 97.52 534.27 138.44 617.11 30.24 61.2 41.46 123.65 42.13 181.5 1.65 142.2-60.36 256.64-60.36 256.64 218.16-183.56 337.43-365.07 389.04-534.37 41.87-137.29 39.24-266.54 8.81-382.34-18.24-69.4-41.8-129.36-79.45-204.02-175.2-347.32-521.32-598.22-937.39-633.17-637.15-53.53-1197.05 419.59-1250.58 1056.74-53.53 637.15 419.6 1197.05 1056.74 1250.58 606.94 50.99 1143.77-375.92 1239.58-967.26-54.17 116.55-131.2 238.17-240.61 347.3-171.98 312.27-516.34 511.08-894.52 479.3-512.74-43.07-893.47-493.64-850.4-1006.38 43.09-512.73 493.65-893.46 1006.39-850.38 269.34 22.63 502.27 157.72 656.46 355.2 69.25 88.7 118.35 177.88 136.97 293.06m33.9 1491.82v218.74h-53.28v-131.18l-48.93 131.18h-43l-49.24-131.5v131.5h-53.28v-218.75h62.94l61.39 151.45 60.77-151.45h62.63zm-415.07 0v130.87c0 13.09 3.22 23.16 9.66 30.23 6.44 7.06 15.9 10.59 28.36 10.59 12.46 0 22.02-3.53 28.67-10.6 6.65-7.06 9.97-17.13 9.97-30.22v-130.88h53.29v130.57c0 19.52-4.16 36.04-12.47 49.54a79.8 79.8 0 0 1-33.5 30.54c-14.02 6.86-29.65 10.29-46.9 10.29-17.24 0-32.66-3.38-46.27-10.13-13.6-6.75-24.36-16.93-32.25-30.54-7.9-13.6-11.85-30.18-11.85-49.7v-130.57h53.29zm-164.84 220.93c-16 0-30.33-2.6-43-7.8-12.68-5.19-22.8-12.87-30.38-23.05-7.6-10.18-11.59-22.44-12-36.77h56.7c.84 8.1 3.65 14.28 8.42 18.54 4.78 4.26 11.01 6.39 18.7 6.39 7.9 0 14.13-1.82 18.7-5.46 4.57-3.63 6.85-8.67 6.85-15.11 0-5.4-1.81-9.87-5.45-13.4a43.9 43.9 0 0 0-13.4-8.72c-5.3-2.3-12.83-4.89-22.6-7.8-14.12-4.36-25.65-8.72-34.59-13.09-8.92-4.36-16.61-10.8-23.05-19.31-6.45-8.52-9.66-19.63-9.66-33.35 0-20.36 7.37-36.3 22.12-47.83 14.75-11.53 33.97-17.3 57.65-17.3 24.1 0 43.52 5.77 58.27 17.3 14.75 11.53 22.64 27.58 23.69 48.14h-57.65c-.42-7.06-3.01-12.62-7.8-16.67-4.77-4.05-10.9-6.08-18.38-6.08-6.44 0-11.63 1.72-15.58 5.14-3.95 3.43-5.92 8.37-5.92 14.8 0 7.07 3.33 12.58 9.97 16.53 6.65 3.94 17.04 8.2 31.16 12.77 14.13 4.78 25.61 9.35 34.44 13.71 8.83 4.37 16.46 10.7 22.9 19 6.44 8.32 9.66 19.02 9.66 32.1 0 12.47-3.17 23.8-9.5 33.97-6.34 10.18-15.53 18.28-27.58 24.3-12.05 6.03-26.28 9.05-42.7 9.05zm-191.33-123.1c10.18 0 17.76-2.38 22.74-7.16 5-4.78 7.48-11.53 7.48-20.25 0-8.73-2.49-15.48-7.48-20.26-4.98-4.78-12.56-7.17-22.74-7.17h-28.98v54.85h28.98zm84.44-27.41c0 12.67-2.9 24.25-8.72 34.74-5.82 10.5-14.75 18.96-26.8 25.4-12.05 6.44-27 9.66-44.87 9.66h-33.03v78.52h-53.3v-218.75h86.33c17.45 0 32.2 3.01 44.25 9.04 12.05 6.02 21.08 14.33 27.1 24.93 6.04 10.59 9.04 22.74 9.04 36.45zm-205.35-70.43v218.75h-53.29v-218.75h53.29zm-91.61 0v218.75h-53.29v-131.18l-48.92 131.18h-43l-49.25-131.5v131.5h-53.28v-218.75h62.95l61.38 151.45 60.77-151.45h62.64zm-363.04 42.7v44.24h71.36v41.14h-71.36v47.98h80.71v42.7h-134v-218.76h134v42.7h-80.7zm-203.17 55.78h33.03c9.77 0 17.09-2.4 21.97-7.18 4.88-4.77 7.32-11.53 7.32-20.25 0-8.31-2.44-14.86-7.32-19.63-4.88-4.78-12.2-7.17-21.97-7.17h-33.03v54.22zm58.27 120.27-45.5-82.57h-12.77v82.57h-53.29v-218.75h89.44c17.24 0 31.94 3.01 44.1 9.04 12.14 6.02 21.23 14.28 27.26 24.77 6.02 10.5 9.03 22.18 9.03 35.06 0 14.54-4.1 27.52-12.3 38.95-8.2 11.43-20.31 19.52-36.3 24.3l50.47 86.63h-60.14zm-253.03-46.42c17.45 0 31.42-5.82 41.91-17.45 10.5-11.64 15.74-27.02 15.74-46.13 0-19.32-5.24-34.74-15.74-46.27-10.49-11.53-24.46-17.3-41.9-17.3-17.67 0-31.74 5.72-42.23 17.14-10.5 11.43-15.74 26.9-15.74 46.43 0 19.33 5.25 34.75 15.74 46.28 10.49 11.53 24.56 17.3 42.22 17.3zm0 48.6c-20.56 0-39.42-4.77-56.56-14.33a107.12 107.12 0 0 1-40.82-40.04c-10.07-17.14-15.11-36.4-15.11-57.8s5.04-40.62 15.11-57.65a107.49 107.49 0 0 1 40.82-39.89c17.14-9.56 36-14.33 56.56-14.33 20.57 0 39.42 4.77 56.56 14.33a105.25 105.25 0 0 1 40.51 39.89c9.87 17.03 14.8 36.25 14.8 57.65s-4.98 40.66-14.96 57.8c-9.97 17.14-23.47 30.5-40.5 40.04-17.04 9.56-35.84 14.34-56.4 14.34zm1364.96 45.26h-9.9v80.5h13v-56.82l45.66 56.81h9.77v-80.5h-12.88v57.28l-45.65-57.27zm-106.71 51.86h-34.04l17.02-38.3 17.02 38.3zm12.42 28.63h13.68l-36.1-80.5h-14.03l-36.11 80.5h13.68l7.6-16.9h43.58l7.7 16.9zm-139.7-70.26c-8.22-8.13-18.15-12.2-29.8-12.2-13.18 0-23.53 4.13-31.04 12.37-7.52 8.24-11.27 18.46-11.27 30.65 0 5.52.84 10.67 2.53 15.46a40.79 40.79 0 0 0 7.47 13c3.3 3.87 7.72 6.94 13.28 9.2 5.56 2.26 11.9 3.4 19.03 3.4 12.58 0 23.12-4.69 31.63-14.04v-33h-34.38v11.5h22.42v16.33a29.71 29.71 0 0 1-19.67 7.13c-9.8 0-17.2-2.8-22.2-8.4-4.97-5.6-7.47-12.46-7.47-20.58-.07-8.82 2.58-16.22 7.94-22.2 5.37-5.98 12.61-8.97 21.73-8.97 3.84 0 7.73.75 11.68 2.25 3.94 1.5 7.3 3.62 10.05 6.38l8.06-8.28zm-211.6 30.59c0-9.05 2.51-16.4 7.54-22.08 5.02-5.68 12.05-8.51 21.1-8.51 6.2.07 11.52 1.66 15.93 4.77 4.4 3.1 7.55 6.88 9.43 11.33a36.87 36.87 0 0 1 2.81 14.48c0 8.44-2.37 15.47-7.13 21.11-4.75 5.63-11.84 8.45-21.27 8.45-4.75 0-8.99-.86-12.7-2.59a23.44 23.44 0 0 1-8.92-6.9 31.12 31.12 0 0 1-5-9.43 36.4 36.4 0 0 1-1.78-10.63zm28.64-42.32c-12.11 0-22.04 3.97-29.78 11.9-7.75 7.94-11.62 18.03-11.62 30.3 0 5.45.86 10.6 2.6 15.47a42.6 42.6 0 0 0 7.47 13.17c3.25 3.91 7.56 7.03 12.93 9.37s11.42 3.5 18.17 3.5 12.8-1.12 18.17-3.38c5.37-2.27 9.68-5.35 12.94-9.26a42.4 42.4 0 0 0 7.47-13.29 47.34 47.34 0 0 0 2.59-15.69c0-11.65-3.56-21.56-10.7-29.73-7.13-8.16-17.2-12.29-30.24-12.36zm-161.56 1.5v80.5h55.31v-11.97h-42.43v-68.53h-12.88zm-77.61 11.26c-5.68-9.04-15.68-13.56-30.02-13.56-3.83 0-7.5.44-11.04 1.32-3.53.88-6.82 2.2-9.89 3.96a20.23 20.23 0 0 0-7.36 7.25 20.14 20.14 0 0 0-2.75 10.58c0 3.3.59 6.23 1.78 8.8a18.85 18.85 0 0 0 4.48 6.26 23.44 23.44 0 0 0 7.07 4.14 59.93 59.93 0 0 0 8.34 2.65c2.65.61 5.8 1.15 9.49 1.6 6.44.85 11.48 2.25 15.12 4.2 3.64 1.96 5.46 4.97 5.46 9.03a10.7 10.7 0 0 1-3.16 7.88 16.37 16.37 0 0 1-7.53 4.31 37.98 37.98 0 0 1-9.66 1.15c-11.5 0-19.86-4.4-25.07-13.23l-9.66 6.44c6.6 12.2 18.13 18.3 34.61 18.3 5.98 0 11.37-.8 16.16-2.37a27.04 27.04 0 0 0 12.19-8.1c3.33-3.84 5-8.63 5-14.38 0-4.29-.87-8-2.59-11.1a18.59 18.59 0 0 0-7.53-7.36 46.4 46.4 0 0 0-10-4.08 104.2 104.2 0 0 0-12.19-2.41c-6.36-.93-11.22-2.2-14.55-3.8-3.34-1.6-5-4.17-5-7.7 0-3.76 1.72-6.73 5.17-8.91 3.45-2.19 7.94-3.29 13.46-3.29 4.21.08 8.1.9 11.67 2.48a19.09 19.09 0 0 1 8.22 6.5l9.78-6.56zm-162.83.46c4.98 0 8.78 1.48 11.39 4.43 2.6 2.95 3.9 6.42 3.9 10.4 0 4.07-1.3 7.48-3.9 10.25-2.61 2.75-6.44 4.13-11.5 4.13h-24.5v-29.2h24.6zm30.6 66.47-24.05-26.8c7.44-1.07 12.94-3.92 16.5-8.56 3.57-4.64 5.35-10.14 5.35-16.5a25.7 25.7 0 0 0-7.53-18.57c-5.02-5.18-11.98-7.76-20.87-7.76-4.14 0-10.39-.03-18.75-.07-8.35-.03-14.6-.05-18.74-.05v80.61h12.88v-27.83h17.02l24.49 27.83h15.07l-1.38-2.3zm-159.61-78.08v47.03c0 7.51-2.07 13.32-6.21 17.43-4.14 4.1-9.51 5.96-16.1 5.57-6.14-.23-11.08-2.33-14.84-6.33-3.76-3.98-5.63-9.54-5.63-16.67v-47.03h-12.77v47.03c0 10.9 3.17 19.36 9.49 25.42 6.33 6.06 14.24 9.2 23.74 9.42 10.2.39 18.6-2.47 25.2-8.56 6.58-6.1 9.88-14.85 9.88-26.28v-47.03h-12.76zm-198.94 40.7c0-9.04 2.51-16.4 7.54-22.07 5.02-5.68 12.05-8.51 21.1-8.51 6.2.07 11.52 1.66 15.93 4.77 4.4 3.1 7.54 6.88 9.43 11.33a36.87 36.87 0 0 1 2.82 14.48c0 8.44-2.38 15.47-7.13 21.11-4.76 5.63-11.85 8.45-21.28 8.45-4.76 0-8.99-.86-12.7-2.59a23.43 23.43 0 0 1-8.92-6.9 30.97 30.97 0 0 1-5-9.43 36.44 36.44 0 0 1-1.79-10.63zm28.64-42.31c-12.12 0-22.04 3.97-29.79 11.9-7.74 7.94-11.61 18.03-11.61 30.3a46 46 0 0 0 2.59 15.47 42.67 42.67 0 0 0 7.47 13.17c3.26 3.91 7.57 7.03 12.94 9.37 5.36 2.34 11.42 3.5 18.17 3.5 6.75 0 12.8-1.12 18.17-3.38 5.37-2.27 9.68-5.35 12.94-9.26a42.27 42.27 0 0 0 7.47-13.29 47.32 47.32 0 0 0 2.58-15.69c0-11.65-3.56-21.56-10.69-29.73-7.13-8.16-17.2-12.29-30.24-12.36zm-162.25 1.5h-15.3v.57l31.05 46.92v33h12.88v-33l31.97-46.92v-.57h-15.52l-22.89 35.53-22.19-35.53zm-283.26-88.57h69.8v41.13h-123.09v-218.75h53.3v177.62z"/></svg>