<?xml version="1.0" encoding="utf-8"?>
<!-- Generator: Adobe Illustrator 27.5.0, SVG Export Plug-In . SVG Version: 6.00 Build 0)  -->
<svg version="1.1" id="Layer_1" xmlns="http://www.w3.org/2000/svg" xmlns:xlink="http://www.w3.org/1999/xlink" x="0px" y="0px"
	 viewBox="0 0 4000 4000" style="enable-background:new 0 0 4000 4000;" xml:space="preserve">
<g>
	<rect style="fill-rule:evenodd;clip-rule:evenodd;fill:#FFFFFF;" width="4000" height="4000"/>
	<path style="fill-rule:evenodd;clip-rule:evenodd;" d="M1830.463,1386.236c87.595-21.822,157.723,5.003,157.723,5.003
		c-116.135-36.955-346.885,62.347-271.563,185.29c85.55,139.63,261.34-70.743,300.79-94.53
		c29.14-17.575,59.697-25.757,88.407-28.507c70.568-6.752,130.012,19.275,130.012,19.275
		c-100.295-100.72-195.44-152.39-281.703-170.967c-69.948-15.067-134.05-8.367-190.303,11.58
		c-33.723,11.957-62.523,26.163-98.045,47.99c-165.227,101.528-275.42,283.946-275.42,492.1
		c0,318.76,258.401,577.161,577.163,577.161c318.76,0,577.162-258.402,577.162-577.161c0-303.643-234.482-552.515-532.252-575.433
		c60.155,22.048,123.793,55.233,182.58,105.037c162.306,72.402,275.437,235.177,275.437,424.38
		c0,256.517-207.945,464.456-464.457,464.456c-256.517,0-464.462-207.94-464.462-464.456c0-134.753,57.388-256.105,149.055-340.947
		C1731.759,1428.406,1774.019,1400.296,1830.463,1386.236"/>
	<path style="fill-rule:evenodd;clip-rule:evenodd;" d="M2964.514,1560.978c28.903,178.762-36.492,314.428-36.492,314.428
		c93.368-225.927-66.368-703.843-324.76-573.932c-293.472,147.554,97.517,534.265,138.438,617.108
		c30.237,61.203,41.457,123.651,42.134,181.506c1.648,142.185-60.364,256.63-60.364,256.63
		c218.163-183.558,337.427-365.065,389.04-534.368c41.868-137.286,39.237-266.542,8.812-382.336
		c-18.237-69.412-41.793-129.365-79.455-204.028c-175.197-347.32-521.315-598.215-937.385-633.167
		c-637.148-53.532-1197.051,419.59-1250.58,1056.738c-53.532,637.151,419.59,1197.056,1056.738,1250.583
		c606.94,50.99,1143.773-375.916,1239.584-967.256c-54.17,116.542-131.196,238.167-240.618,347.305
		c-171.973,312.265-516.337,511.068-894.52,479.296c-512.735-43.077-893.466-493.643-850.388-1006.38
		c43.077-512.73,493.643-893.461,1006.378-850.383c269.348,22.63,502.277,157.715,656.466,355.19
		C2896.794,1356.615,2945.89,1445.801,2964.514,1560.978"/>
	<path style="fill-rule:evenodd;clip-rule:evenodd;" d="M2998.415,3052.794v218.75h-53.287v-131.187l-48.925,131.187h-43.001
		l-49.239-131.5v131.5h-53.287v-218.75h62.948l61.385,151.442l60.77-151.442H2998.415z M2583.339,3052.794v130.877
		c0,13.087,3.221,23.163,9.662,30.227c6.443,7.062,15.894,10.592,28.36,10.592c12.463,0,22.022-3.53,28.668-10.592
		c6.647-7.063,9.968-17.14,9.968-30.227v-130.877h53.292v130.563c0,19.527-4.158,36.043-12.468,49.545
		c-8.31,13.508-19.473,23.683-33.5,30.543c-14.022,6.852-29.65,10.282-46.895,10.282c-17.243,0-32.67-3.378-46.275-10.13
		c-13.606-6.747-24.36-16.927-32.253-30.533c-7.895-13.612-11.845-30.18-11.845-49.707v-130.563H2583.339z M2418.499,3273.727
		c-15.996,0-30.33-2.598-43-7.792c-12.677-5.192-22.8-12.878-30.383-23.055c-7.588-10.18-11.585-22.44-12-36.775h56.712
		c0.832,8.104,3.638,14.287,8.415,18.543c4.78,4.257,11.011,6.388,18.698,6.388c7.895,0,14.127-1.82,18.695-5.452
		c4.573-3.638,6.855-8.675,6.855-15.118c0-5.4-1.815-9.865-5.452-13.395c-3.633-3.533-8.103-6.443-13.398-8.725
		c-5.302-2.287-12.827-4.885-22.594-7.795c-14.125-4.362-25.653-8.722-34.592-13.087c-8.928-4.362-16.615-10.8-23.055-19.318
		c-6.445-8.519-9.661-19.63-9.661-33.345c0-20.358,7.375-36.302,22.125-47.835c14.75-11.527,33.963-17.292,57.646-17.292
		c24.1,0,43.522,5.765,58.275,17.292c14.745,11.533,22.64,27.582,23.685,48.147h-57.653c-0.415-7.063-3.009-12.618-7.79-16.672
		c-4.776-4.05-10.903-6.077-18.383-6.077c-6.443,0-11.635,1.715-15.58,5.14c-3.95,3.43-5.925,8.363-5.925,14.802
		c0,7.063,3.327,12.572,9.973,16.521c6.652,3.945,17.037,8.202,31.161,12.775c14.127,4.777,25.607,9.35,34.437,13.71
		c8.83,4.365,16.46,10.697,22.903,19.007c6.44,8.31,9.662,19.01,9.662,32.097c0,12.463-3.17,23.788-9.51,33.965
		c-6.33,10.18-15.523,18.283-27.577,24.307C2449.137,3270.712,2434.912,3273.727,2418.499,3273.727z M2227.166,3150.637
		c10.182,0,17.763-2.387,22.748-7.164c4.988-4.78,7.478-11.531,7.478-20.258c0-8.725-2.49-15.477-7.478-20.253
		c-4.985-4.78-12.567-7.167-22.748-7.167h-28.98v54.842H2227.166z M2311.614,3123.215c0,12.677-2.905,24.257-8.72,34.748
		c-5.822,10.489-14.755,18.955-26.802,25.393c-12.052,6.44-27.01,9.662-44.873,9.662h-33.033v78.525h-53.287v-218.75h86.32
		c17.448,0,32.197,3.01,44.25,9.033c12.052,6.023,21.085,14.338,27.108,24.93C2308.606,3097.35,2311.614,3109.505,2311.614,3123.215
		z M2106.259,3052.794v218.75h-53.287v-218.75H2106.259z M2014.647,3052.794v218.75h-53.287v-131.187l-48.925,131.187h-43.002
		l-49.238-131.5v131.5h-53.287v-218.75h62.948l61.388,151.442l60.767-151.442H2014.647z M1651.611,3095.484v44.248h71.362v41.137
		h-71.362v47.985h80.712v42.69h-133.995v-218.75h133.995v42.69H1651.611z M1448.438,3151.265h33.033
		c9.765,0,17.087-2.395,21.968-7.172c4.885-4.777,7.322-11.528,7.322-20.253c0-8.312-2.437-14.855-7.322-19.63
		c-4.882-4.777-12.203-7.172-21.968-7.172h-33.033V3151.265z M1506.713,3271.544l-45.497-82.578h-12.778v82.578h-53.287v-218.75
		h89.437c17.245,0,31.938,3.01,44.093,9.033c12.152,6.023,21.242,14.287,27.27,24.775c6.018,10.493,9.033,22.177,9.033,35.055
		c0,14.542-4.102,27.528-12.308,38.953c-8.205,11.428-20.31,19.525-36.302,24.307l50.48,86.627H1506.713z M1253.683,3225.117
		c17.447,0,31.417-5.82,41.91-17.452c10.493-11.636,15.737-27.01,15.737-46.12c0-19.323-5.243-34.748-15.737-46.275
		c-10.493-11.529-24.463-17.297-41.91-17.297c-17.66,0-31.733,5.717-42.227,17.14c-10.488,11.428-15.732,26.905-15.732,46.432
		c0,19.323,5.243,34.743,15.732,46.275C1221.949,3219.349,1236.023,3225.117,1253.683,3225.117z M1253.683,3273.727
		c-20.565,0-39.42-4.782-56.56-14.335c-17.14-9.552-30.747-22.903-40.823-40.043c-10.073-17.135-15.11-36.406-15.11-57.803
		s5.037-40.612,15.11-57.647c10.077-17.037,23.683-30.332,40.823-39.888c17.14-9.558,35.995-14.335,56.56-14.335
		c20.565,0,39.417,4.777,56.557,14.335c17.14,9.557,30.642,22.852,40.511,39.888c9.868,17.035,14.802,36.25,14.802,57.647
		s-4.985,40.668-14.958,57.803c-9.973,17.14-23.475,30.492-40.507,40.043C1293.046,3268.945,1274.248,3273.727,1253.683,3273.727z
		 M2618.635,3318.977h-9.888v80.495h12.991v-56.807l45.657,56.807h9.77v-80.495h-12.878v57.268L2618.635,3318.977z
		 M2511.929,3370.837h-34.039l17.017-38.297L2511.929,3370.837z M2524.351,3399.472h13.682l-36.108-80.495h-14.027l-36.11,80.495
		h13.684l7.592-16.905h43.582L2524.351,3399.472z M2384.641,3329.21c-8.207-8.132-18.138-12.195-29.788-12.195
		c-13.185,0-23.537,4.125-31.048,12.365c-7.512,8.238-11.268,18.458-11.268,30.647c0,5.523,0.842,10.677,2.528,15.468
		c1.687,4.79,4.18,9.122,7.473,12.991c3.299,3.874,7.725,6.94,13.285,9.203c5.557,2.258,11.902,3.392,19.03,3.392
		c12.572,0,23.112-4.677,31.625-14.026v-33.01h-34.383v11.505h22.421v16.327c-5.67,4.753-12.227,7.13-19.663,7.13
		c-9.812,0-17.21-2.802-22.195-8.395c-4.98-5.598-7.473-12.458-7.473-20.585c-0.076-8.815,2.57-16.213,7.937-22.19
		c5.367-5.982,12.608-8.972,21.732-8.972c3.836,0,7.725,0.747,11.675,2.243c3.943,1.493,7.303,3.62,10.056,6.378L2384.641,3329.21z
		 M2173.057,3359.795c0-9.042,2.508-16.403,7.53-22.077c5.023-5.675,12.057-8.508,21.1-8.508c6.211,0.075,11.523,1.662,15.93,4.772
		c4.408,3.103,7.55,6.878,9.43,11.328c1.877,4.447,2.817,9.275,2.817,14.485c0,8.438-2.372,15.468-7.13,21.105
		c-4.752,5.635-11.844,8.451-21.273,8.451c-4.753,0-8.99-0.865-12.708-2.59c-3.718-1.718-6.685-4.02-8.91-6.897
		c-2.222-2.873-3.888-6.02-5.003-9.43C2173.724,3367.024,2173.132,3363.475,2173.057,3359.795z M2201.688,3317.479
		c-12.108,0-22.035,3.969-29.778,11.902c-7.749,7.937-11.617,18.033-11.617,30.302c0,5.443,0.86,10.602,2.588,15.469
		c1.725,4.865,4.215,9.26,7.475,13.167c3.255,3.912,7.568,7.035,12.935,9.373s11.423,3.505,18.17,3.505s12.803-1.128,18.17-3.392
		c5.367-2.263,9.675-5.349,12.94-9.255c3.255-3.912,5.745-8.338,7.47-13.285c1.724-4.947,2.588-10.177,2.588-15.695
		c0-11.655-3.562-21.562-10.691-29.725C2224.804,3321.679,2214.722,3317.555,2201.688,3317.479z M2040.131,3318.977v80.495h55.31
		v-11.958h-42.43v-68.537H2040.131z M1962.519,3330.244c-5.678-9.047-15.68-13.568-30.015-13.568c-3.835,0-7.512,0.44-11.045,1.323
		c-3.525,0.878-6.822,2.202-9.888,3.963c-3.067,1.767-5.518,4.182-7.357,7.248c-1.842,3.065-2.758,6.595-2.758,10.577
		c0,3.298,0.59,6.228,1.781,8.798c1.185,2.57,2.683,4.658,4.484,6.268c1.8,1.607,4.161,2.987,7.072,4.138
		c2.915,1.148,5.693,2.032,8.335,2.647c2.65,0.613,5.81,1.147,9.49,1.61c6.44,0.842,11.482,2.24,15.123,4.195
		c3.638,1.957,5.462,4.967,5.462,9.028c0,3.143-1.053,5.77-3.16,7.877c-2.113,2.107-4.622,3.548-7.537,4.313
		c-2.91,0.765-6.132,1.148-9.657,1.148c-11.503,0-19.857-4.403-25.072-13.225l-9.656,6.44c6.59,12.193,18.127,18.288,34.61,18.288
		c5.982,0,11.368-0.788,16.158-2.362c4.79-1.568,8.853-4.271,12.188-8.103c3.337-3.835,5.003-8.627,5.003-14.377
		c0-4.288-0.865-7.993-2.588-11.097c-1.725-3.103-4.233-5.557-7.532-7.36c-3.297-1.8-6.633-3.162-10.002-4.083
		c-3.377-0.92-7.44-1.723-12.188-2.413c-6.363-0.922-11.215-2.188-14.552-3.793c-3.335-1.612-5.003-4.177-5.003-7.707
		c0-3.755,1.73-6.727,5.178-8.91c3.448-2.187,7.933-3.283,13.455-3.283c4.215,0.08,8.103,0.904,11.67,2.475
		c3.567,1.573,6.307,3.738,8.225,6.497L1962.519,3330.244z M1799.688,3330.702c4.983,0,8.778,1.475,11.39,4.427
		c2.603,2.953,3.907,6.422,3.907,10.408c0,4.063-1.303,7.475-3.907,10.238c-2.612,2.758-6.443,4.138-11.503,4.138h-24.492v-29.212
		H1799.688z M1830.282,3397.17l-24.038-26.792c7.437-1.078,12.937-3.932,16.503-8.57c3.567-4.635,5.348-10.138,5.348-16.498
		c0-7.21-2.51-13.398-7.537-18.572c-5.016-5.174-11.975-7.762-20.872-7.762c-4.133,0-10.385-0.023-18.742-0.062
		c-8.358-0.038-14.608-0.057-18.742-0.057v80.613h12.878v-27.828h17.017l24.492,27.828h15.072L1830.282,3397.17z M1670.678,3319.09
		v47.032c0,7.511-2.073,13.322-6.212,17.423c-4.138,4.1-9.507,5.961-16.102,5.575c-6.132-0.231-11.078-2.335-14.83-6.326
		c-3.76-3.982-5.635-9.543-5.635-16.672v-47.032h-12.767v47.032c0,10.89,3.167,19.36,9.487,25.417
		c6.327,6.057,14.24,9.198,23.745,9.425c10.2,0.383,18.592-2.47,25.187-8.565c6.59-6.095,9.888-14.853,9.888-26.277v-47.032
		H1670.678z M1471.743,3359.795c0-9.042,2.508-16.403,7.535-22.077c5.018-5.675,12.052-8.508,21.1-8.508
		c6.207,0.075,11.518,1.662,15.93,4.772c4.403,3.103,7.545,6.878,9.43,11.328c1.877,4.447,2.817,9.275,2.817,14.485
		c0,8.438-2.377,15.468-7.13,21.105c-4.753,5.635-11.843,8.451-21.273,8.451c-4.758,0-8.992-0.865-12.708-2.59
		c-3.718-1.718-6.69-4.02-8.912-6.897c-2.225-2.873-3.892-6.02-5.003-9.43C1472.414,3367.024,1471.818,3363.475,1471.743,3359.795z
		 M1500.378,3317.479c-12.113,0-22.04,3.969-29.783,11.902c-7.743,7.937-11.617,18.033-11.617,30.302
		c0,5.443,0.865,10.602,2.589,15.469c1.725,4.865,4.218,9.26,7.475,13.167c3.258,3.912,7.573,7.035,12.94,9.373
		c5.362,2.338,11.423,3.505,18.17,3.505c6.747,0,12.798-1.128,18.165-3.392c5.372-2.263,9.68-5.349,12.94-9.255
		c3.26-3.912,5.75-8.338,7.473-13.285c1.725-4.947,2.585-10.177,2.585-15.695c0-11.655-3.562-21.562-10.692-29.725
		C1523.489,3321.679,1513.413,3317.555,1500.378,3317.479z M1338.131,3318.977h-15.297v0.572l31.048,46.923v33h12.883v-33
		l31.965-46.923v-0.572h-15.523l-22.885,35.531L1338.131,3318.977z M1054.871,3230.414h69.802v41.13h-123.088v-218.75h53.287
		V3230.414z"/>
</g>
</svg>
