<svg version="1.0" xmlns="http://www.w3.org/2000/svg" viewBox="0 0 512 512"><path d="M247 .5c-.8.2-4.9.9-9 1.5-38.5 6.2-72.2 32-86.7 66.4-6.3 14.8-8.4 25.8-9.1 47.1l-.7 19-20.5.5c-20.3.5-20.6.6-27 3.6-13.3 6.3-23.5 19.3-26 33.6-.7 3.7-1 48.7-.7 132.5l.3 126.8 2.2 8.3c4.9 18.5 12.7 32.1 26.1 45.2 14 13.8 30.3 22.1 49.8 25.5 12.6 2.2 207.9 2.2 220.4 0 20.7-3.6 36.1-11.6 51-26.4 12.4-12.4 20.3-26.3 25.1-44.3l2.2-8.3.3-126.8c.3-83.8 0-128.8-.7-132.5-2.5-14.2-12.6-27.3-25.7-33.5-6.7-3.1-7.1-3.2-23.4-3.5l-16.6-.4-.7-15.9c-.4-8.8-1.3-19.9-2.2-24.7-8.2-47.1-42.3-81.5-90.9-91.7-7.2-1.5-33.6-3-37.5-2zm25 14.6c25 3.1 46.3 13.1 62.6 29.3 12.4 12.4 20.3 26.4 25.2 44.5 2.5 9.3 2.6 10.6 3 45.3.4 39.5.3 39.9-6.1 43.8-3.9 2.4-7.8 2.5-12.2.4-7-3.3-6.9-3-7.6-41.9-.6-39-1-41.5-7.9-56-8.9-18.6-26.7-32.4-48.4-37.6-12.3-2.9-30.6-2.9-42.1 0-23.4 6-41.6 21.1-50.3 41.8-5 11.7-5.4 15.8-6.1 52.5-.6 33.1-.7 34.8-2.7 37.5-1.1 1.5-4 3.5-6.2 4.3-3.7 1.3-4.7 1.3-8.4 0-2.7-1-5-2.7-6.5-4.9-2.3-3.4-2.3-3.7-2.3-35.1 0-23.9.4-33.9 1.5-40.6 5.7-33.2 24.8-59 54-73 19.4-9.3 40.2-12.9 60.5-10.3zm11.2 43.4c18.8 6.5 32 20.5 37.4 39.5.9 3.3 1.8 11.7 2.1 21.3l.6 15.7-63.4-.2-63.4-.3.1-14.5c.2-23.2 4.5-35.2 16.9-47.5 7.8-7.8 15.9-12.3 27.7-15.5 11-3 31.2-2.3 42 1.5zm-141 103.7c.3 12.4.5 13.6 3 18 9.3 15.7 30.1 18.6 42.8 5.8 6.4-6.3 8-11.4 8-25.7v-11.3h127v10.7c0 12.6.9 16.4 5.3 23 2.4 3.5 4.8 5.6 9.7 8.1 6 3.1 7.1 3.4 13.5 3 11.3-.8 19.1-6.1 23.6-16.3 1.7-3.9 2.3-7.5 2.7-16.8l.5-11.9 15.1.4c13.4.3 15.6.6 19.4 2.6 6.2 3.3 11.4 8.4 14.2 13.9l2.5 4.8v264l-2.8 8c-10.5 29.8-34.9 50.1-65.2 54.5-9.4 1.3-201.6 1.3-211 0-32.1-4.6-58.6-28.3-66.5-59.5-2-7.9-2-10.4-1.8-137.5l.3-129.5 2.3-4.5c2.8-5.3 6.4-9.4 11.1-12.2 6.6-4.2 9.9-4.7 28.3-4.8h17.6l.4 13.2z"/><path d="M215 203.6c-12.9 2.4-18 6.3-18 13.8 0 5.1 5.6 17.4 9.4 20.3 4.3 3.4 3.3 4.7-4.2 5.9-10.1 1.6-19.5 6.5-27.3 14.3-11.2 11.2-15 23.3-9.4 29.9 3.8 4.6 21.3 8.9 25.4 6.3 1-.6 2.3-.3 4.1 1.1 2.1 1.5 4.9 2 13.7 2.5l11 .6-3.8 6.5c-9.5 16.3-14 35.9-14.5 63.5l-.3 18.7-8 4.1c-9.5 4.9-23.4 15.8-27.5 21.6-6.8 9.7-3.3 22.8 7.5 28.3 3.7 1.9 6.3 2 69.5 2 65.2 0 65.8 0 70.2-2.1 6.2-3 10.2-9.5 10.2-16.5 0-7.1-1.1-9.6-7.2-16.1-12.1-12.8-27.4-20.8-51.4-26.9-3.1-.7-10.4-31.6-10.4-43.7 0-6.3 1.6-17.5 2.8-19.3.4-.6 2.4-.9 4.5-.6 3.1.4 4.3 1.2 6.9 5.1 5.5 8.1 12 15.2 15.5 16.9 1.9.9 3.6 2.6 3.9 3.9.6 2.4 8.7 10.3 13.9 13.4 3.7 2.3 10.3 2.4 13.3.3 5.5-3.8 10.8-16.2 11.8-27.3.7-8.4-1.4-18.8-5.6-27-1.7-3.4-2.8-6.6-2.5-7 .3-.5 2.1-.4 4 .2 3.9 1.1 14-.2 20.1-2.8 4.7-1.9 7.6-6.9 7.1-12-1.1-10.5-12.6-25.4-24.2-31.3-9.4-4.7-15.8-6.2-26.4-6.2-9 .1-15.4 1.5-24.2 5.4-1.2.5-1.9-.6-3.3-5.6-6.3-22.7-24.8-38.3-47.6-40.1-3.6-.3-7.6-.3-9-.1zm18.5 16.5c14.9 5.6 25.5 20.7 25.5 36.4 0 9-1.6 9.8-6.8 3.6-5-5.9-13.4-11.6-21-14.3-3.1-1.1-6.1-2.3-6.5-2.8-.5-.4.2-2.6 1.5-4.9 2.1-3.8 2.2-4.3.8-6.7-1.8-3.2-3.3-4.1-8.2-4.9-2.9-.4-4.2-1.3-5.3-3.6-.9-1.6-1.3-3.4-1-3.9 1.2-1.9 15.1-1.1 21 1.1zm-5.1 39.8 4.9 2.2-4.2 3.5c-4.8 4.1-8.1 10-8.1 14.2 0 2.5-.5 3-3.2 3.6-1.8.4-5.9.3-9.1 0-5.1-.6-6-1-6.8-3.3-2.7-6.9-8.2-8.1-13.5-3-2.8 2.7-3.7 3.1-6.8 2.5-4.3-.8-4.5-2.1-.7-7.2 4.9-6.8 11.1-11.2 19.6-14.1 6.2-2 21.8-1.1 27.9 1.6zm82.7-.3c9.5 2.8 18.4 9.7 22.5 17.5 1.8 3.6 1.6 3.9-2.8 4.9-2.9.6-3.6.3-6.4-2.8-2.3-2.7-3.8-3.5-6.2-3.4-4.2.1-4.9.6-7.2 5.3-1.1 2.1-2.4 3.9-2.9 3.9s-3.2-1.5-6-3.4c-7.4-5-15.5-7.8-24.9-8.5l-8.2-.6 1.5-2.2c2.3-3.3 9.9-8.2 15.8-10.4 6.5-2.3 17.5-2.4 24.8-.3zm-62.4 17.6c5.1 4.8 1.5 13.8-5.6 13.8-4.7 0-8.1-3.2-8.1-7.9 0-7.2 8.4-10.9 13.7-5.9zm20.6 12.6c2.5 2.2 2.3 8.3-.5 10.9-1.3 1.1-3.1 2.3-4 2.6-1.7.6-7.8-1-7.8-2 0-.3 1.3-2 2.9-3.9 1.6-1.8 3.5-4.8 4.2-6.8 1.3-3.5 1.9-3.6 5.2-.8zm24.9 3.4c15.7 9.7 22.4 30.4 15.4 47.3l-1.6 3.7-3.1-2.3c-3-2.1-3.1-2.4-2.4-7.5.5-4.5.3-5.6-1.4-7.3-1.8-1.8-3.3-2.4-6.1-2.3-.3 0-1.9.3-3.6.6-3 .7-3.4.3-8.2-6l-5.1-6.8 2.9-4c3.4-4.7 5.3-12 4.3-16.6-.6-3-.4-3.2 1.7-2.5 1.3.4 4.5 2.1 7.2 3.7zm-53.1 12.5c1.5.3 3 1.1 3.3 1.8.4 1.1-2 10.9-3.1 12.4-.3.5-12.6-3.9-13.7-5-.5-.4.5-3 2.4-5.9 2.9-4.5 3.6-5.1 5.8-4.5 1.3.3 3.7.9 5.3 1.2zm-1.1 37.4c.3 4.6.5 8.6.3 8.8-.1.2-5.2 0-11.3-.4-8.5-.6-11.3-1.1-11.7-2.2-.6-1.6.8-10.8 2.7-17.5l1-3.6 9.3 3.3 9.2 3.3.5 8.3zm-1.3 23.6 5.2.6 1.8 6.1 1.9 6.1-11.6.7c-6.3.3-13.4 1-15.6 1.6l-4.2.9-.6-5.1c-.3-2.8-.6-6.9-.6-9v-3.9l9.3.7c5 .4 11.5.9 14.4 1.3zm21.6 28.8c16.8 2.9 32.3 10.4 43.8 21.2 5.2 4.8 6.1 7.9 3.3 10.7-1.4 1.4-8.6 1.6-64.9 1.6h-63.5l-1.6-2.5c-2.4-3.6-1-5.9 7.2-12.7 7.7-6.2 19.1-12.7 27.2-15.3 13.9-4.5 33.3-5.7 48.5-3z"/></svg>