<?xml version="1.0" standalone="no"?>
<!DOCTYPE svg PUBLIC "-//W3C//DTD SVG 20010904//EN"
 "http://www.w3.org/TR/2001/REC-SVG-20010904/DTD/svg10.dtd">
<svg version="1.0" xmlns="http://www.w3.org/2000/svg"
 width="512.000000pt" height="512.000000pt" viewBox="0 0 512.000000 512.000000"
 preserveAspectRatio="xMidYMid meet">

<g transform="translate(0.000000,512.000000) scale(0.100000,-0.100000)"
fill="#000000" stroke="none">
<path d="M185 4935 l-25 -24 0 -296 0 -295 80 0 80 0 0 240 0 240 80 0 80 0 0
-320 0 -320 -135 0 c-131 0 -137 -1 -160 -25 l-25 -24 0 -591 0 -591 25 -24
c23 -24 29 -25 160 -25 l135 0 0 -1000 0 -1000 -135 0 c-131 0 -137 -1 -160
-25 l-25 -24 0 -232 c0 -150 4 -246 12 -271 27 -90 132 -168 226 -168 117 0
242 115 242 224 0 14 16 16 120 16 l120 0 0 80 0 80 -280 0 -280 0 0 80 0 80
320 0 320 0 0 1160 0 1160 -320 0 -320 0 0 480 0 480 2240 0 2240 0 0 -480 0
-480 -320 0 -320 0 0 295 0 296 -25 24 -24 25 -1591 0 -1591 0 -24 -25 c-25
-24 -25 -24 -25 -240 l0 -215 80 0 80 0 0 160 0 160 1480 0 1480 0 0 -80 0
-80 -1322 -2 -1323 -3 -51 -27 c-76 -40 -107 -70 -145 -140 l-34 -63 -5 -1250
c-5 -1134 -7 -1256 -23 -1313 -22 -82 -61 -174 -103 -243 -40 -67 -43 -101 -9
-134 l24 -25 1271 0 1271 0 22 23 c31 30 103 173 133 260 54 157 54 164 54
1345 l0 1092 200 0 200 0 0 -1000 0 -1000 -135 0 c-131 0 -137 -1 -160 -25
l-25 -24 0 -232 c0 -150 4 -246 12 -271 27 -90 132 -168 226 -168 117 0 242
115 242 224 0 13 13 16 80 16 67 0 80 -3 80 -16 0 -47 28 -102 75 -149 73 -74
151 -92 248 -59 57 19 128 93 145 152 8 25 12 121 12 271 l0 232 -25 24 c-23
24 -29 25 -160 25 l-135 0 0 1000 0 1000 135 0 c131 0 137 1 160 25 l25 24 0
591 0 591 -25 24 -24 25 -1336 0 -1335 0 0 375 0 376 -25 24 -24 25 -991 0
-991 0 -24 -25z m615 -455 l0 -320 -80 0 -80 0 0 320 0 320 80 0 80 0 0 -320z
m320 0 l0 -320 -80 0 -80 0 0 320 0 320 80 0 80 0 0 -320z m320 0 l0 -320 -80
0 -80 0 0 320 0 320 80 0 80 0 0 -320z m640 0 l0 -320 -240 0 -240 0 0 320 0
320 240 0 240 0 0 -320z m1560 -1285 c0 -4 -8 -20 -17 -38 -16 -29 -18 -80
-21 -576 l-3 -543 -64 61 c-86 82 -104 82 -191 -1 l-64 -62 -144 142 c-183
182 -170 180 -313 40 l-103 -102 -183 182 c-190 189 -206 199 -256 172 -10 -5
-101 -142 -202 -304 l-183 -294 -95 64 c-64 43 -106 64 -125 64 -25 0 -59 -29
-213 -182 l-183 -182 0 716 c0 483 3 726 11 745 14 37 47 73 84 89 24 11 239
13 1148 14 614 0 1117 -2 1117 -5z m360 -75 l0 -80 -120 0 c-130 0 -131 0
-109 57 25 67 83 102 172 103 l57 0 0 -80z m-3200 -1240 l0 -1000 -80 0 -80 0
0 1000 0 1000 80 0 80 0 0 -1000z m3680 0 l0 -1000 -80 0 -80 0 0 1000 0 1000
80 0 80 0 0 -1000z m-1760 40 c28 0 47 14 137 102 l103 102 143 -142 c175
-174 176 -174 273 -80 l65 62 79 -79 80 -80 0 -284 0 -285 -104 102 c-83 82
-109 102 -132 102 -19 0 -62 -22 -126 -65 -54 -36 -101 -65 -105 -65 -4 0 -73
65 -153 145 -130 129 -150 145 -180 145 -30 0 -52 -18 -220 -185 -102 -102
-189 -185 -193 -185 -4 0 -51 29 -105 65 -57 38 -108 65 -123 65 -17 0 -72
-35 -164 -104 l-139 -104 -98 132 c-54 72 -106 137 -115 144 -9 6 -30 12 -47
12 -25 0 -53 -23 -173 -142 l-143 -142 0 124 0 125 202 202 c112 112 206 203
211 203 4 0 51 -29 105 -65 102 -68 135 -78 170 -47 11 9 97 142 192 295 l173
278 177 -175 c158 -157 180 -176 210 -176z m225 -660 c117 -116 147 -140 171
-140 19 0 62 22 126 65 54 36 101 65 105 65 5 0 64 -56 132 -124 l123 -124 -5
-188 c-5 -213 -20 -287 -82 -418 l-36 -76 -1151 0 c-1092 0 -1150 1 -1142 17
4 10 22 61 40 113 39 114 54 214 54 363 l0 112 152 152 c84 84 156 153 159
153 4 0 50 -58 103 -129 53 -71 104 -132 112 -135 39 -15 68 -1 208 105 l148
111 107 -71 c71 -47 117 -71 136 -71 24 0 59 30 209 180 100 99 183 180 186
180 2 0 68 -63 145 -140z m1855 -620 l0 -80 -400 0 -400 0 0 80 0 80 400 0
400 0 0 -80z m-4320 -255 c0 -27 -47 -65 -80 -65 -33 0 -80 38 -80 65 0 12 15
15 80 15 65 0 80 -3 80 -15z m3680 0 c0 -27 -47 -65 -80 -65 -33 0 -80 38 -80
65 0 12 15 15 80 15 65 0 80 -3 80 -15z m640 0 c0 -27 -47 -65 -80 -65 -33 0
-80 38 -80 65 0 12 15 15 80 15 65 0 80 -3 80 -15z"/>
<path d="M1440 2880 l0 -80 240 0 240 0 0 80 0 80 -240 0 -240 0 0 -80z"/>
<path d="M3040 2880 l0 -80 200 0 200 0 0 80 0 80 -200 0 -200 0 0 -80z"/>
<path d="M1440 2560 l0 -80 240 0 240 0 0 80 0 80 -240 0 -240 0 0 -80z"/>
<path d="M3280 2560 l0 -80 80 0 80 0 0 80 0 80 -80 0 -80 0 0 -80z"/>
<path d="M1440 2240 l0 -80 160 0 160 0 0 80 0 80 -160 0 -160 0 0 -80z"/>
<path d="M1440 560 l0 -80 160 0 160 0 0 80 0 80 -160 0 -160 0 0 -80z"/>
<path d="M1920 560 l0 -80 80 0 80 0 0 80 0 80 -80 0 -80 0 0 -80z"/>
<path d="M2880 560 l0 -80 240 0 240 0 0 80 0 80 -240 0 -240 0 0 -80z"/>
<path d="M4320 3600 l0 -80 80 0 80 0 0 80 0 80 -80 0 -80 0 0 -80z"/>
<path d="M4320 3280 l0 -80 80 0 80 0 0 80 0 80 -80 0 -80 0 0 -80z"/>
</g>
</svg>
