<svg version="1.0" xmlns="http://www.w3.org/2000/svg" viewBox="0 0 512 512"><path d="M169 20.7c-49.2 11.9-85.2 21.1-86.2 22-2.5 2.2-2.4 8.5.1 10.7 1 1 3.2 1.8 4.7 1.8 2.2 0 153.6-35.8 159.2-37.7 1-.4 1.2 14.3 1 72.7l-.3 73.1-53 12.9c-34.6 8.4-54.8 12.9-58.3 12.8-5.8 0-11.1-2.2-16.6-7-2.3-2.1-4.7-6.1-7.6-13-4.5-10.7-9.3-17-16.6-22.1-6.2-4.2-11.5-5.9-22.1-6.9-15.1-1.5-22.9-7-27.2-19.4-5-14.3-14.8-24.6-27.3-28.6l-3.8-1.2v-17.4l23.9-5.8c15.9-3.8 24.4-6.3 25.5-7.5 2.2-2.4 2.1-8.4-.2-10.4-1-1-3.4-1.7-5.3-1.7-1.9.1-15.1 2.9-29.4 6.4-20.9 5.2-26.3 6.8-27.7 8.6-1.7 2.1-1.8 7-1.8 85.4v83.3l2.3 2.1c2.3 2.1 3.1 2.2 25.5 2.2h23.2v14h-3c-3.8 0-8 3.9-8 7.5 0 1.4 1.1 3.7 2.5 5 2.3 2.4 2.9 2.5 16.5 2.5s14.2-.1 16.5-2.5c1.4-1.3 2.5-3.6 2.5-5 0-3.8-4.2-7.5-8.5-7.5h-3.6l.3-6.8.3-6.7 36.3-.3 36.2-.2v14h-3.3c-7.2 0-10.6 8.6-5.1 12.9 2.4 1.9 4 2.1 15.9 2.1s13.5-.2 15.9-2.1c5.5-4.3 2.1-12.9-5.1-12.9h-3.3v-14h66v70.9c0 70.1 0 70.9 2.1 73.5 2.7 3.4 7.7 3.6 10.7.3l2.2-2.3v-90.6c0-49.9-.3-91.4-.6-92.3-1-2.6-6.3-4.5-9.3-3.4-4.5 1.8-5 3.6-5.1 16.6v12.3l-72.7-.1c-40.1 0-72.3-.2-71.8-.5.6-.2 39.3-9.6 86-20.9 46.8-11.3 87.1-21 89.7-21.7 4.6-1.1 7.7-.4 89 19.2 46.4 11.2 87.5 21.1 91.3 22.1 6.9 1.7 5.5 1.8-66.2 1.8l-73.3.1v-12.3c-.1-13-.6-14.8-5.1-16.6-3-1.1-8.3.8-9.3 3.4-.3.9-.6 71.4-.6 156.6v155l2.5 2.4c1.3 1.4 3.6 2.5 5 2.5s3.7-1.1 5-2.5l2.5-2.4v-120.1h10.5c9.7 0 10.5.1 10.5 2 0 3.2 2.1 6.7 4.7 7.9 3.4 1.6 4.7 1.4 7.7-1l2.6-2v-29.8l-2.6-2c-3-2.4-4.3-2.6-7.7-1-2.8 1.3-4.7 4.8-4.7 8.4 0 2.5 0 2.5-10.5 2.5h-10.5v-136h66v14h-3.3c-7.2 0-10.6 8.6-5.1 12.9 2.4 1.9 4 2.1 15.9 2.1s13.5-.2 15.9-2.1c5.5-4.3 2.1-12.9-5.1-12.9h-3.3v-14l36.3.2 36.2.3.3 6.7.3 6.8h-3.6c-4.3 0-8.5 3.7-8.5 7.5 0 1.4 1.1 3.7 2.5 5 2.3 2.4 2.9 2.5 16.5 2.5s14.2-.1 16.5-2.5c1.4-1.3 2.5-3.6 2.5-5 0-3.6-4.2-7.5-8-7.5h-3v-14h23.3c23.1 0 23.4 0 25.5-2.3l2.2-2.3v-166.5l-2.2-2.2c-3.2-3.1-37.7-11.5-41.7-10.1a7.12 7.12 0 0 0-4.1 9.3c1.4 3.6 2.6 4.1 19.3 8.2l13.7 3.3v17.4l-4.5 1.5c-2.4.9-6.6 3-9.2 4.8-9 6.1-13.5 12.4-17.9 24.7-4 11.4-11.8 16.7-26.6 18.1-10.8 1.1-14.4 2.2-21.3 6.6-7.8 4.9-12.8 11.3-17.5 22.5-2.9 6.9-5.3 10.9-7.6 13-5.5 4.8-10.8 7-16.6 7-3.5.1-23.8-4.4-58.3-12.8l-53-12.9-.3-73.3c-.2-58.4 0-73.1 1-72.7.7.2 41 10 89.6 21.8l88.2 21.3 2.8-2.1c3.7-2.7 4.2-8 1-11-1.8-1.6-22.6-7-96-24.7-51.5-12.4-94.5-22.6-95.5-22.5-1 .1-39.8 9.3-86.3 20.6zm-148.3 89.2c5.5 4 8.4 8.2 11.7 16.9 3.4 8.8 7.4 14.3 14.1 19.4 6.7 5.1 13.8 7.6 23.7 8.4 15.5 1.1 22.9 6.8 28.7 21.8 2.3 6.3 4.5 10 8.2 14 4.2 4.6 4.7 5.5 3.2 6-3.4 1-93.5 22.6-94.4 22.6-.5 0-.9-24.1-.9-56 0-30.8.4-56 .8-56 .5 0 2.7 1.3 4.9 2.9zm476.3 53.1c0 30.8-.3 56-.7 56-.8 0-91.2-21.6-94.6-22.6-1.5-.5-.9-1.4 3.2-6 3.7-4 5.9-7.7 8.2-14 5.8-15 13.2-20.7 28.7-21.8 18.6-1.4 31.2-10.7 37.8-27.8 1.5-4 3.8-8.8 5.2-10.6 2.4-3.3 9.7-9.2 11.4-9.2.4 0 .8 25.2.8 56z"/><path d="M52.1 177c-15.4 3.3-17.3 4.5-16.9 10.4.4 6 3.5 7.4 12.5 5.9 12.6-2.2 21.3-4.5 23.4-6.2 4.2-3.4 2-11-3.6-12.4-1.1-.3-8 .8-15.4 2.3zm387.3-.5c-3.3 3.3-3 8 .6 10.6 1.4 1 8.4 3.2 15.7 4.9 14.4 3.3 17 3.1 19.2-1.7 1.6-3.5 1.4-4.9-1.1-7.7-1.8-1.9-5.1-3.1-15.5-5.5-7.3-1.7-13.9-3.1-14.8-3.1-.9 0-2.7 1.1-4.1 2.5zm-234.5-114.4c-1.8 1.8-2.1 2.9-1.5 7.4.3 2.9.8 6 1.2 6.8.4 1.1-.8 1.5-5 2-16.3 1.7-25.9 15.4-21.5 31 1.3 4.8 7 11.2 12.3 14 5.3 2.7 14.5 2.8 20.1.2 2.3-1.1 5.7-1.7 8.1-1.6 4.9.3 8.4-2.6 8.4-6.9 0-1.4-2.2-13.5-4.9-26.8-3.3-16.6-5.4-24.9-6.6-26.2-2.4-2.7-7.9-2.6-10.6.1zm1 33.5c4.4 3.7 4.4 9.1-.1 12.9-8.4 7.1-18.6-4.8-10.9-12.6 3.6-3.6 7-3.7 11-.3zm113.3-28.9c-1.1 1-9.5 12.6-18.6 25.7-11.5 16.5-16.6 24.8-16.6 26.7 0 4 3.1 7.2 7 7.2 3.3 0 5.9-2.1 10.1-8l1.5-2.1 10.6 2.6 10.6 2.6.7 5c.3 2.7 1.1 5.8 1.6 6.8 1.5 2.8 5.7 4.1 9 2.8 5.1-2.2 5.2-3.6 1.4-34.8-1.9-15.8-3.5-29.3-3.5-30 0-.7-1.1-2.4-2.5-3.7-2.9-3-8.3-3.3-11.3-.8zm2.1 33.2.6 5.3-3.7-.7c-6.4-1.2-6.5-1.6-2.6-7.4 4.1-6.1 4.8-5.8 5.7 2.8zm-187.2-28.5c-1.9 2-3 6.8-7.4 32.5l-5.1 30.1 2.1 2.8c4.8 6.4 12.5 2.8 13.8-6.5l.7-5.1 8.6-1.7c4.8-.9 9.7-1.9 10.8-2.1 1.7-.4 2.7.3 4.4 3.1 4.8 7.7 8.5 9.2 13.4 5.4 4.8-3.8 3.9-6.1-13-33.3-8.5-13.8-16.3-25.7-17.2-26.4-2.7-2.1-8.6-1.5-11.1 1.2zm13.7 30.1c1.7 2.7 2.8 5.3 2.4 5.6-.4.4-2.7 1-5.1 1.4-4.3.7-4.4.7-3.7-1.9.3-1.4.9-4.7 1.3-7.2.7-5 .8-5 5.1 2.1zm265.5-31.3c-4.7 2.3-5.1 10.2-.6 12.6 1 .6 10.7 3.1 21.6 5.7 18.8 4.4 19.9 4.6 22.3 3 4.6-3 5.1-9.3 1-12-1.9-1.2-39.2-10.6-41.3-10.4-.5 0-1.8.5-3 1.1zm-329.2 3.9c-10.2 2.1-19.4 4.6-20.7 5.3-3 2-3.9 6.2-1.9 9.2 3.1 4.8 4.1 4.8 25.3.3 10.8-2.3 20.5-4.5 21.4-5 6.2-3.3 3.3-14.1-3.7-13.8-1.1 0-10.3 1.8-20.4 4zm303 14.8c-1 1-2.5 4.4-3.1 7.4l-1.3 5.5-4.1-1.9c-10-4.5-23.2-.8-29.3 8.4-10.7 16 .6 36.7 19.9 36.7 3.2 0 5.8.4 5.8.9s1.3 1.4 2.8 2c3.3 1.4 7.6.2 9-2.6.6-1 3.8-13.2 7.2-27.2l6.2-25.3-1.9-2.7c-2.6-3.4-8.3-4.1-11.2-1.2zm-12.6 26.6c5.3 5.2 1.6 14.5-5.8 14.5-3.8 0-7.4-2.8-8.3-6.5-.7-3 1.2-8.1 3.5-9.5 3.1-1.8 8.1-1.1 10.6 1.5zm-149.4 282.7c-5.1 1.9-5 .6-5.1 56.6v52.3l2.5 2.4c1.3 1.4 3.6 2.5 5 2.5s3.7-1.1 5-2.5l2.5-2.4v-52.1c0-32.1-.4-52.8-1-54-1.3-2.5-5.9-3.9-8.9-2.8z"/></svg>