<?xml version="1.0" standalone="no"?>
<!DOCTYPE svg PUBLIC "-//W3C//DTD SVG 20010904//EN"
 "http://www.w3.org/TR/2001/REC-SVG-20010904/DTD/svg10.dtd">
<svg version="1.0" xmlns="http://www.w3.org/2000/svg"
 width="512.000000pt" height="512.000000pt" viewBox="0 0 512.000000 512.000000"
 preserveAspectRatio="xMidYMid meet">

<g transform="translate(0.000000,512.000000) scale(0.100000,-0.100000)"
fill="#000000" stroke="none">
<path d="M1690 4913 c-492 -119 -852 -211 -862 -220 -25 -22 -24 -85 1 -107
10 -10 32 -18 47 -18 22 0 1536 358 1592 377 10 4 12 -143 10 -727 l-3 -731
-530 -129 c-346 -84 -548 -129 -583 -128 -58 0 -111 22 -166 70 -23 21 -47 61
-76 130 -45 107 -93 170 -166 221 -62 42 -115 59 -221 69 -151 15 -229 70
-272 194 -50 143 -148 246 -273 286 l-38 12 0 87 0 87 239 58 c159 38 244 63
255 75 22 24 21 84 -2 104 -10 10 -34 17 -53 17 -19 -1 -151 -29 -294 -64
-209 -52 -263 -68 -277 -86 -17 -21 -18 -70 -18 -854 l0 -833 23 -21 c23 -21
31 -22 255 -22 l232 0 0 -70 0 -70 -30 0 c-38 0 -80 -39 -80 -75 0 -14 11 -37
25 -50 23 -24 29 -25 165 -25 136 0 142 1 165 25 14 13 25 36 25 50 0 38 -42
75 -85 75 l-36 0 3 68 3 67 363 3 362 2 0 -70 0 -70 -33 0 c-72 0 -106 -86
-51 -129 24 -19 40 -21 159 -21 119 0 135 2 159 21 55 43 21 129 -51 129 l-33
0 0 70 0 70 330 0 330 0 0 -709 c0 -701 0 -709 21 -735 27 -34 77 -36 107 -3
l22 23 0 906 c0 499 -3 914 -6 923 -10 26 -63 45 -93 34 -45 -18 -50 -36 -51
-166 l0 -123 -727 1 c-401 0 -723 2 -718 5 6 2 393 96 860 209 468 113 871
210 897 217 46 11 77 4 890 -192 464 -112 875 -211 913 -221 69 -17 55 -18
-662 -18 l-733 -1 0 123 c-1 130 -6 148 -51 166 -30 11 -83 -8 -93 -34 -3 -9
-6 -714 -6 -1566 l0 -1550 25 -24 c13 -14 36 -25 50 -25 14 0 37 11 50 25 l25
24 0 601 0 600 105 0 c97 0 105 -1 105 -20 0 -32 21 -67 47 -79 34 -16 47 -14
77 10 l26 20 0 149 0 149 -26 20 c-30 24 -43 26 -77 10 -28 -13 -47 -48 -47
-84 0 -25 0 -25 -105 -25 l-105 0 0 680 0 680 330 0 330 0 0 -70 0 -70 -33 0
c-72 0 -106 -86 -51 -129 24 -19 40 -21 159 -21 119 0 135 2 159 21 55 43 21
129 -51 129 l-33 0 0 70 0 70 363 -2 362 -3 3 -67 3 -68 -36 0 c-43 0 -85 -37
-85 -75 0 -14 11 -37 25 -50 23 -24 29 -25 165 -25 136 0 142 1 165 25 14 13
25 36 25 50 0 36 -42 75 -80 75 l-30 0 0 70 0 70 233 0 c231 0 234 0 255 23
l22 23 0 833 0 832 -22 22 c-32 31 -377 115 -417 101 -37 -13 -56 -57 -41 -93
14 -36 26 -41 193 -82 l137 -33 0 -87 0 -87 -45 -15 c-24 -9 -66 -30 -92 -48
-90 -61 -135 -124 -179 -247 -40 -114 -118 -167 -266 -181 -108 -11 -144 -22
-213 -66 -78 -49 -128 -113 -175 -225 -29 -69 -53 -109 -76 -130 -55 -48 -108
-70 -166 -70 -35 -1 -238 44 -583 128 l-530 129 -3 733 c-2 584 0 731 10 727
7 -2 410 -100 896 -218 l882 -213 28 21 c37 27 42 80 10 110 -18 16 -226 70
-960 247 -515 124 -945 226 -955 225 -10 -1 -398 -93 -863 -206z m-1483 -892
c55 -40 84 -82 117 -169 34 -88 74 -143 141 -194 67 -51 138 -76 237 -84 155
-11 229 -68 287 -218 23 -63 45 -100 82 -140 42 -46 47 -55 32 -60 -34 -10
-935 -226 -944 -226 -5 0 -9 241 -9 560 0 308 4 560 8 560 5 0 27 -13 49 -29z
m4763 -531 c0 -308 -3 -560 -7 -560 -8 0 -912 216 -946 226 -15 5 -9 14 32 60
37 40 59 77 82 140 58 150 132 207 287 218 186 14 312 107 378 278 15 40 38
88 52 106 24 33 97 92 114 92 4 0 8 -252 8 -560z"/>
<path d="M521 3350 c-154 -33 -173 -45 -169 -104 4 -60 35 -74 125 -59 126 22
213 45 234 62 42 34 20 110 -36 124 -11 3 -80 -8 -154 -23z"/>
<path d="M4394 3355 c-33 -33 -30 -80 6 -106 14 -10 84 -32 157 -49 144 -33
170 -31 192 17 16 35 14 49 -11 77 -18 19 -51 31 -155 55 -73 17 -139 31 -148
31 -9 0 -27 -11 -41 -25z"/>
<path d="M2049 4499 c-18 -18 -21 -29 -15 -74 3 -29 8 -60 12 -68 4 -11 -8
-15 -50 -20 -163 -17 -259 -154 -215 -310 13 -48 70 -112 123 -140 53 -27 145
-28 201 -2 23 11 57 17 81 16 49 -3 84 26 84 69 0 14 -22 135 -49 268 -33 166
-54 249 -66 262 -24 27 -79 26 -106 -1z m10 -335 c44 -37 44 -91 -1 -129 -84
-71 -186 48 -109 126 36 36 70 37 110 3z"/>
<path d="M3192 4453 c-11 -10 -95 -126 -186 -257 -115 -165 -166 -248 -166
-267 0 -40 31 -72 70 -72 33 0 59 21 101 80 l15 21 106 -26 106 -26 7 -50 c3
-27 11 -58 16 -68 15 -28 57 -41 90 -28 51 22 52 36 14 348 -19 158 -35 293
-35 300 0 7 -11 24 -25 37 -29 30 -83 33 -113 8z m21 -332 l6 -53 -37 7 c-64
12 -65 16 -26 74 41 61 48 58 57 -28z"/>
<path d="M1341 4406 c-19 -20 -30 -68 -74 -325 l-51 -301 21 -28 c48 -64 125
-28 138 65 l7 51 86 17 c48 9 97 19 108 21 17 4 27 -3 44 -31 48 -77 85 -92
134 -54 48 38 39 61 -130 333 -85 138 -163 257 -172 264 -27 21 -86 15 -111
-12z m137 -301 c17 -27 28 -53 24 -56 -4 -4 -27 -10 -51 -14 -43 -7 -44 -7
-37 19 3 14 9 47 13 72 7 50 8 50 51 -21z"/>
<path d="M4133 4418 c-47 -23 -51 -102 -6 -126 10 -6 107 -31 216 -57 188 -44
199 -46 223 -30 46 30 51 93 10 120 -19 12 -392 106 -413 104 -5 0 -18 -5 -30
-11z"/>
<path d="M841 4379 c-102 -21 -194 -46 -207 -53 -30 -20 -39 -62 -19 -92 31
-48 41 -48 253 -3 108 23 205 45 214 50 62 33 33 141 -37 138 -11 0 -103 -18
-204 -40z"/>
<path d="M3871 4231 c-10 -10 -25 -44 -31 -74 l-13 -55 -41 19 c-100 45 -232
8 -293 -84 -107 -160 6 -367 199 -367 32 0 58 -4 58 -9 0 -5 13 -14 28 -20 33
-14 76 -2 90 26 6 10 38 132 72 272 l62 253 -19 27 c-26 34 -83 41 -112 12z
m-126 -266 c53 -52 16 -145 -58 -145 -38 0 -74 28 -83 65 -7 30 12 81 35 95
31 18 81 11 106 -15z"/>
<path d="M2251 1138 c-51 -19 -50 -6 -51 -566 l0 -523 25 -24 c13 -14 36 -25
50 -25 14 0 37 11 50 25 l25 24 0 521 c0 321 -4 528 -10 540 -13 25 -59 39
-89 28z"/>
</g>
</svg>
