<svg version="1.0" xmlns="http://www.w3.org/2000/svg" viewBox="0 0 512 512"><path d="M142 21c-1.9 1.9-2 3.3-2 23v21h-23c-21.7 0-23.1.1-25 2-1.9 1.9-2 3.3-2 51.9v49.9l-23.2.4c-22.6.3-23.5.4-28.8 2.9-7.7 3.6-12.4 8-15.7 14.7l-2.8 5.7v207l2.7 5.2c3.4 6.4 8.6 11.5 14.7 14.5 4.6 2.3 5.1 2.3 53.6 2.8l49 .5.5 33.8c.5 32.1.6 33.9 2.4 35.3 3 2.1 224.2 2.1 227.2 0 1.8-1.4 1.9-3.2 2.4-35.3l.5-33.8 49-.5c48.4-.5 49.1-.5 53.6-2.8 5.9-2.9 11.4-8.4 14.7-14.7l2.7-5 .3-101.4c.3-111.4.5-107.3-5.7-115.8-3.2-4.5-9.6-9.2-15.1-11.3-2.4-.9-10.8-1.5-26.7-1.8l-23.3-.4v-49.9c0-48.6-.1-50-2-51.9-1.9-1.9-3.3-2-25-2h-23v-21c0-19.7-.1-21.1-2-23-2-2-3.3-2-114-2s-112 0-114 2zm216 80v68h-204v-136h204v68zm-218 23v45h-36v-90h36v45zm268 0v45h-36v-90h36v45zm61.7 61.2c1.8 1 4.5 3.5 6 5.5l2.8 3.6.3 100.1.2 100.1-2.2 4.5c-1.5 3-3.7 5.3-6.3 6.7-3.8 2.2-5.1 2.3-26.2 2.3h-22.3v-40.5c0-39.2-.1-40.6-2-42.5-2-2-3.3-2-164-2s-162 0-164 2c-1.9 1.9-2 3.3-2 42.5v40.5h-22.2c-21.2 0-22.5-.1-26.3-2.3a15.2 15.2 0 0 1-6.3-6.7l-2.2-4.4v-98.9c0-107.6-.3-102.3 5.5-107.7 5.5-5.2-5.7-4.9 219-4.7 196.9.2 209.2.3 212.2 1.9zm-329.7 187.3v35.5h-36v-71h36v35.5zm218 35.5v71h-204v-142h204v71zm50-35.5v35.5h-36v-71h36v35.5z"/><path d="M338.2 60c-1.2.5-2.7 2.1-3.2 3.5-.6 1.5-1 12.2-1 23.9 0 20.1.1 21.5 2.1 24 2.5 3.2 7.7 3.6 10.2.8 1.5-1.6 1.7-4.9 1.7-25.5v-23.6l-2.6-2c-2.9-2.3-3.8-2.4-7.2-1.1zm-.2 146.2c-15.7 4.4-18.9 25.2-5.2 33.9 3.6 2.3 5.7 2.9 10.1 2.9 22.2 0 26.1-31 4.6-36.9-4.6-1.3-4.8-1.3-9.5.1zm8.1 14.7c2 1.6 2.2 2.3 1.4 4.7-.9 2.4-1.6 2.9-4.5 2.9s-3.6-.5-4.5-2.9c-.8-2.4-.6-3.1 1.4-4.7 1.3-1 2.7-1.9 3.1-1.9.4 0 1.8.9 3.1 1.9zm42.4-15.4c-.5.2-2.2.6-3.7.9-3.4.8-9.4 5.9-11.4 9.7-1.9 3.9-1.8 12.6.4 16.8 5.3 10.6 20.1 13.5 28.9 5.8 2-1.7 4.2-4.6 4.9-6.4 1.8-4.2 1.8-12.7 0-16.2-3.5-6.7-13.8-12.4-19.1-10.6zm6.3 17.9c.4 3.3-1.3 5.6-4.2 5.6-3 0-4.6-1.8-4.6-5.2 0-5.4 8.2-5.7 8.8-.4zm38.2-17.2c-15.7 4.4-18.9 25.2-5.2 33.9 3.6 2.3 5.7 2.9 10.1 2.9 22.2 0 26.1-31 4.6-36.9-4.6-1.3-4.8-1.3-9.5.1zm8.1 14.7c2 1.6 2.2 2.3 1.4 4.7-.9 2.4-1.6 2.9-4.5 2.9s-3.6-.5-4.5-2.9c-.8-2.4-.6-3.1 1.4-4.7 1.3-1 2.7-1.9 3.1-1.9.4 0 1.8.9 3.1 1.9zm-381.8-2.9c-4.4 1.8-5.6 7.7-2.3 11 1.9 1.9 3.3 2 54.8 2 50 0 53-.1 54.5-1.8 2.4-2.6 2.1-7.5-.4-9.8-2-1.8-4.5-1.9-53.3-2.1-28.2-.1-52.1.2-53.3.7zm131.9 141.3c-2.8 3-2.8 6.8.1 9.5l2.3 2.2h125.1l2.1-2.3c2.8-3 2.8-6.8-.1-9.5l-2.3-2.2h-125.1l-2.1 2.3zm0 36c-2.8 3-2.8 6.8.1 9.5l2.3 2.2h125.1l2.1-2.3c2.8-3 2.8-6.8-.1-9.5l-2.3-2.2h-125.1l-2.1 2.3zm0 36c-2.8 3-2.8 6.8.1 9.5l2.3 2.2h125.1l2.1-2.3c2.8-3 2.8-6.8-.1-9.5l-2.3-2.2h-125.1l-2.1 2.3z"/></svg>