<?xml version="1.0" standalone="no"?>
<!DOCTYPE svg PUBLIC "-//W3C//DTD SVG 20010904//EN"
 "http://www.w3.org/TR/2001/REC-SVG-20010904/DTD/svg10.dtd">
<svg version="1.0" xmlns="http://www.w3.org/2000/svg"
 width="512.000000pt" height="512.000000pt" viewBox="0 0 512.000000 512.000000"
 preserveAspectRatio="xMidYMid meet">

<g transform="translate(0.000000,512.000000) scale(0.100000,-0.100000)"
fill="#000000" stroke="none">
<path d="M2470 5115 c-8 -2 -49 -9 -90 -15 -385 -62 -722 -320 -867 -664 -63
-148 -84 -258 -91 -471 l-7 -190 -205 -5 c-203 -5 -206 -6 -270 -36 -133 -63
-235 -193 -260 -336 -7 -37 -10 -487 -7 -1325 l3 -1268 22 -83 c49 -185 127
-321 261 -452 140 -138 303 -221 498 -255 126 -22 2079 -22 2204 0 207 36 361
116 510 264 124 124 203 263 251 443 l22 83 3 1268 c3 838 0 1288 -7 1325 -25
142 -126 273 -257 335 -67 31 -71 32 -234 35 l-166 4 -7 159 c-4 88 -13 199
-22 247 -82 471 -423 815 -909 917 -72 15 -336 30 -375 20z m250 -146 c250
-31 463 -131 626 -293 124 -124 203 -264 252 -445 25 -93 26 -106 30 -453 4
-395 3 -399 -61 -438 -39 -24 -78 -25 -122 -4 -70 33 -69 30 -76 419 -6 390
-10 415 -79 560 -89 186 -267 324 -484 376 -123 29 -306 29 -421 0 -234 -60
-416 -211 -503 -418 -50 -117 -54 -158 -61 -525 -6 -331 -7 -348 -27 -375 -11
-15 -40 -35 -62 -43 -37 -13 -47 -13 -84 0 -27 10 -50 27 -65 49 -23 34 -23
37 -23 351 0 239 4 339 15 406 57 332 248 590 540 730 194 93 402 129 605 103z
m112 -434 c188 -65 320 -205 374 -395 9 -33 18 -117 21 -213 l6 -157 -634 2
-634 3 1 145 c2 232 45 352 169 475 78 78 159 123 277 155 110 30 312 23 420
-15z m-1410 -1037 c3 -124 5 -136 30 -180 93 -157 301 -186 428 -58 64 63 80
114 80 257 l0 113 635 0 635 0 0 -107 c0 -126 9 -164 53 -230 24 -35 48 -56
97 -81 60 -31 71 -34 135 -30 113 8 191 61 236 163 17 39 23 75 27 168 l5 119
151 -4 c134 -3 156 -6 194 -26 62 -33 114 -84 142 -139 l25 -48 0 -1320 0
-1320 -28 -80 c-105 -298 -349 -501 -652 -545 -94 -13 -2016 -13 -2110 0 -321
46 -586 283 -665 595 -20 79 -20 104 -18 1375 l3 1295 23 45 c28 53 64 94 111
122 66 42 99 47 283 48 l176 0 4 -132z"/>
<path d="M2150 3084 c-129 -24 -180 -63 -180 -138 0 -51 56 -174 94 -203 43
-34 33 -47 -42 -59 -101 -16 -195 -65 -273 -143 -112 -112 -150 -233 -94 -299
38 -46 213 -89 254 -63 10 6 23 3 41 -11 21 -15 49 -20 137 -25 l110 -6 -38
-65 c-95 -163 -140 -359 -145 -635 l-3 -187 -80 -41 c-95 -49 -234 -158 -275
-216 -68 -97 -33 -228 75 -283 37 -19 63 -20 695 -20 652 0 658 0 702 21 62
30 102 95 102 165 0 71 -11 96 -72 161 -121 128 -274 208 -514 269 -31 7 -104
316 -104 437 0 63 16 175 28 193 4 6 24 9 45 6 31 -4 43 -12 69 -51 55 -81
120 -152 155 -169 19 -9 36 -26 39 -39 6 -24 87 -103 139 -134 37 -23 103 -24
133 -3 55 38 108 162 118 273 7 84 -14 188 -56 270 -17 34 -28 66 -25 70 3 5
21 4 40 -2 39 -11 140 2 201 28 47 19 76 69 71 120 -11 105 -126 254 -242 313
-94 47 -158 62 -264 62 -90 -1 -154 -15 -242 -54 -12 -5 -19 6 -33 56 -63 227
-248 383 -476 401 -36 3 -76 3 -90 1z m185 -165 c149 -56 255 -207 255 -364 0
-90 -16 -98 -68 -36 -50 59 -134 116 -210 143 -31 11 -61 23 -65 28 -5 4 2 26
15 49 21 38 22 43 8 67 -18 32 -33 41 -82 49 -29 4 -42 13 -53 36 -9 16 -13
34 -10 39 12 19 151 11 210 -11z m-51 -398 l49 -22 -42 -35 c-48 -41 -81 -100
-81 -142 0 -25 -5 -30 -32 -36 -18 -4 -59 -3 -91 0 -51 6 -60 10 -68 33 -27
69 -82 81 -135 30 -28 -27 -37 -31 -68 -25 -43 8 -45 21 -7 72 49 68 111 112
196 141 62 20 218 11 279 -16z m827 3 c95 -28 184 -97 225 -175 18 -36 16 -39
-28 -49 -29 -6 -36 -3 -64 28 -23 27 -38 35 -62 34 -42 -1 -49 -6 -72 -53 -11
-21 -24 -39 -29 -39 -5 0 -32 15 -60 34 -74 50 -155 78 -249 85 l-82 6 15 22
c23 33 99 82 158 104 65 23 175 24 248 3z m-624 -176 c51 -48 15 -138 -56
-138 -47 0 -81 32 -81 79 0 72 84 109 137 59z m206 -126 c25 -22 23 -83 -5
-109 -13 -11 -31 -23 -40 -26 -17 -6 -78 10 -78 20 0 3 13 20 29 39 16 18 35
48 42 68 13 35 19 36 52 8z m249 -34 c157 -97 224 -304 154 -473 l-16 -37 -31
23 c-30 21 -31 24 -24 75 5 45 3 56 -14 73 -18 18 -33 24 -61 23 -3 0 -19 -3
-36 -6 -30 -7 -34 -3 -82 60 l-51 68 29 40 c34 47 53 120 43 166 -6 30 -4 32
17 25 13 -4 45 -21 72 -37z m-531 -125 c15 -3 30 -11 33 -18 4 -11 -20 -109
-31 -124 -3 -5 -126 39 -137 50 -5 4 5 30 24 59 29 45 36 51 58 45 13 -3 37
-9 53 -12z m-11 -374 c3 -46 5 -86 3 -88 -1 -2 -52 0 -113 4 -85 6 -113 11
-117 22 -6 16 8 108 27 175 l10 36 93 -33 92 -33 5 -83z m-13 -236 l52 -6 18
-61 19 -61 -116 -7 c-63 -3 -134 -10 -156 -16 l-42 -9 -6 51 c-3 28 -6 69 -6
90 l0 39 93 -7 c50 -4 115 -9 144 -13z m216 -288 c168 -29 323 -104 438 -212
52 -48 61 -79 33 -107 -14 -14 -86 -16 -649 -16 l-635 0 -16 25 c-24 36 -10
59 72 127 77 62 191 127 272 153 139 45 333 57 485 30z"/>
</g>
</svg>
