<svg version="1.0" xmlns="http://www.w3.org/2000/svg"
 width="300.000000pt" height="300.000000pt" viewBox="0 0 300.000000 300.000000"
 preserveAspectRatio="xMidYMid meet">

<g transform="translate(0.000000,300.000000) scale(0.100000,-0.100000)"
fill="#2042E2" stroke="none">
<path d="M1289 2945 c-317 -50 -592 -190 -818 -416 -115 -115 -193 -222 -266
-361 -247 -473 -216 -1043 82 -1492 86 -130 273 -319 398 -402 164 -109 349
-186 535 -224 143 -29 440 -29 583 1 555 115 985 527 1134 1087 23 86 27 121
31 310 5 265 -11 372 -85 567 -159 417 -526 758 -952 884 -197 59 -445 76
-642 46z m726 -710 c70 -21 149 -79 189 -139 66 -100 67 -110 64 -627 l-3
-464 -28 -61 c-36 -77 -104 -145 -182 -181 l-60 -28 -464 -3 c-517 -3 -527 -2
-628 65 -64 42 -127 133 -143 206 -8 36 -10 195 -8 517 3 456 3 466 25 513 46
99 117 164 216 198 47 17 96 18 513 19 375 0 470 -3 509 -15z"/>
<path d="M1025 2106 c-56 -26 -109 -80 -136 -140 -17 -38 -19 -74 -19 -476 0
-402 2 -438 19 -476 26 -58 72 -106 128 -134 l48 -25 445 0 445 0 54 30 c56
31 106 88 128 148 8 23 12 157 12 453 1 468 0 476 -65 552 -19 22 -57 52 -86
66 l-52 26 -435 0 c-436 0 -436 0 -486 -24z m938 -125 c13 -5 29 -23 36 -39
21 -50 -15 -102 -70 -102 -28 0 -69 44 -69 75 0 28 40 75 64 75 8 0 26 -4 39
-9z m-293 -134 c107 -51 172 -124 210 -238 62 -183 -28 -387 -208 -472 -61
-29 -76 -32 -162 -32 -86 0 -101 3 -160 31 -95 46 -143 93 -187 182 -36 73
-38 80 -38 177 1 90 3 106 30 160 51 103 154 189 259 216 17 5 69 7 116 5 67
-3 97 -9 140 -29z"/>
<path d="M1411 1743 c-104 -37 -178 -156 -169 -271 7 -96 62 -177 151 -224 59
-32 175 -32 233 -1 169 90 205 303 74 433 -75 76 -186 99 -289 63z"/>
</g>
</svg>
