<svg version="1.0" xmlns="http://www.w3.org/2000/svg" viewBox="0 0 300 300"><g fill="#2042E2"><path d="M128.9 5.5c-31.7 5-59.2 19-81.8 41.6a140.38 140.38 0 0 0-26.6 36.1c-24.7 47.3-21.6 104.3 8.2 149.2 8.6 13 27.3 31.9 39.8 40.2 16.4 10.9 34.9 18.6 53.5 22.4 14.3 2.9 44 2.9 58.3-.1 55.5-11.5 98.5-52.7 113.4-108.7 2.3-8.6 2.7-12.1 3.1-31 .5-26.5-1.1-37.2-8.5-56.7-15.9-41.7-52.6-75.8-95.2-88.4-19.7-5.9-44.5-7.6-64.2-4.6zm72.6 71c7 2.1 14.9 7.9 18.9 13.9 6.6 10 6.7 11 6.4 62.7l-.3 46.4-2.8 6.1a38.52 38.52 0 0 1-18.2 18.1l-6 2.8-46.4.3c-51.7.3-52.7.2-62.8-6.5-6.4-4.2-12.7-13.3-14.3-20.6-.8-3.6-1-19.5-.8-51.7.3-45.6.3-46.6 2.5-51.3 4.6-9.9 11.7-16.4 21.6-19.8 4.7-1.7 9.6-1.8 51.3-1.9 37.5 0 47 .3 50.9 1.5z"/><path d="M102.5 89.4c-5.6 2.6-10.9 8-13.6 14-1.7 3.8-1.9 7.4-1.9 47.6s.2 43.8 1.9 47.6c2.6 5.8 7.2 10.6 12.8 13.4l4.8 2.5h89l5.4-3c5.6-3.1 10.6-8.8 12.8-14.8.8-2.3 1.2-15.7 1.2-45.3.1-46.8 0-47.6-6.5-55.2-1.9-2.2-5.7-5.2-8.6-6.6l-5.2-2.6h-43.5c-43.6 0-43.6 0-48.6 2.4zm93.8 12.5c1.3.5 2.9 2.3 3.6 3.9 2.1 5-1.5 10.2-7 10.2-2.8 0-6.9-4.4-6.9-7.5 0-2.8 4-7.5 6.4-7.5.8 0 2.6.4 3.9.9zm-29.3 13.4c10.7 5.1 17.2 12.4 21 23.8 6.2 18.3-2.8 38.7-20.8 47.2-6.1 2.9-7.6 3.2-16.2 3.2s-10.1-.3-16-3.1c-9.5-4.6-14.3-9.3-18.7-18.2-3.6-7.3-3.8-8-3.8-17.7.1-9 .3-10.6 3-16 5.1-10.3 15.4-18.9 25.9-21.6 1.7-.5 6.9-.7 11.6-.5 6.7.3 9.7.9 14 2.9z"/><path d="M141.1 125.7c-10.4 3.7-17.8 15.6-16.9 27.1.7 9.6 6.2 17.7 15.1 22.4 5.9 3.2 17.5 3.2 23.3.1 16.9-9 20.5-30.3 7.4-43.3-7.5-7.6-18.6-9.9-28.9-6.3z"/></g></svg>