<svg version="1.0" xmlns="http://www.w3.org/2000/svg" viewBox="0 0 300 300"><path d="M126.5 3.4c-54.5 8.9-100.4 48.1-117.5 100.5-5.6 17.1-6.5 23.7-6.5 46.1 0 23 1 29.9 7.2 48 7.5 22.1 18 38.8 35.7 56.6 18 18 35.1 28.7 58.5 36.4 6.4 2.1 15.8 4.6 21 5.4 10.8 1.8 36.7 2.1 47.6.6 12.9-1.9 28.9-7 42.2-13.5 40.3-19.7 68.2-53.8 79.6-97.5 2.7-10.3 3-13.5 3.5-30.7.3-12.2 0-22.2-.7-27.3-2.9-19.9-12.1-43.3-23.6-60.4-21.6-32.2-54.7-54.5-93.5-63.1-10.1-2.3-42.4-2.9-53.5-1.1zm45.8 58.2c19.9 4.5 35 18.1 42.5 38.2 3.6 9.9 4.3 28.5 1.3 40.1a78.46 78.46 0 0 1-14.5 29.7c-16.3 20.8-38.5 26.2-56.5 13.9l-4.9-3.4-3.2 13.2c-5.1 20.4-10.7 33.3-18.6 42.6-4.5 5.2-4.8 4.8-6.5-7.2-1.7-12.5-.2-23.1 8.7-59 7.4-29.9 7.5-30.2 5.7-33.2-2.9-5-2.4-15.7 1.1-22.8 3.6-7.5 8.1-10.9 15-11.5 4.8-.4 5.6-.1 8.9 2.8 5.4 4.7 5.5 7.2.8 26.6-5.5 23-5.4 22.8-4.1 28.4 3.2 13.2 19.2 15.9 30.9 5.4 8.8-7.9 14.8-20 17-34.2 2.6-16.9-4.4-34.3-17.5-43.3-17.6-12.1-46.4-9.5-63.2 5.6-16 14.4-20.1 37.9-8.8 51.2l2.7 3.2-1.7 6.8c-.9 3.7-2 7.2-2.5 7.7-2.9 3.3-15.2-7.1-19.4-16.6-5.4-12-4.4-30.1 2.6-44.8 9.8-20.7 27.2-34.4 50.4-39.5 8.6-1.9 25.2-1.8 33.8.1z" fill="#2042E2"/></svg>