<svg version="1.0" xmlns="http://www.w3.org/2000/svg"
 width="300.000000pt" height="300.000000pt" viewBox="0 0 300.000000 300.000000"
 preserveAspectRatio="xMidYMid meet">

<g transform="translate(0.000000,300.000000) scale(0.100000,-0.100000)"
fill="#2042E2" stroke="none">
<path d="M1265 2966 c-545 -89 -1004 -481 -1175 -1005 -56 -171 -65 -237 -65
-461 0 -230 10 -299 72 -480 75 -221 180 -388 357 -566 180 -180 351 -287 585
-364 64 -21 158 -46 210 -54 108 -18 367 -21 476 -6 129 19 289 70 422 135
403 197 682 538 796 975 27 103 30 135 35 307 3 122 0 222 -7 273 -29 199
-121 433 -236 604 -216 322 -547 545 -935 631 -101 23 -424 29 -535 11z m458
-582 c199 -45 350 -181 425 -382 36 -99 43 -285 13 -401 -27 -108 -77 -212
-145 -297 -163 -208 -385 -262 -565 -139 l-49 34 -32 -132 c-51 -204 -107
-333 -186 -426 -45 -52 -48 -48 -65 72 -17 125 -2 231 87 590 74 299 75 302
57 332 -29 50 -24 157 11 228 36 75 81 109 150 115 48 4 56 1 89 -28 54 -47
55 -72 8 -266 -55 -230 -54 -228 -41 -284 32 -132 192 -159 309 -54 88 79 148
200 170 342 26 169 -44 343 -175 433 -176 121 -464 95 -632 -56 -160 -144
-201 -379 -88 -512 l27 -32 -17 -68 c-9 -37 -20 -72 -25 -77 -29 -33 -152 71
-194 166 -54 120 -44 301 26 448 98 207 272 344 504 395 86 19 252 18 338 -1z"/>
</g>
</svg>
