<svg version="1.0" xmlns="http://www.w3.org/2000/svg" viewBox="0 0 300 300"><g fill="#2042E2"><path d="M127 4.7c-31 5-57.7 18.8-80.5 41.7-21.1 21.2-32.9 42.5-40.2 72.9-2.6 10.5-2.6 49.9 0 60.7 6.6 27.9 18.8 50.7 37.6 70.2 28.9 30.2 65.2 45.8 106.3 45.8 39.1 0 75.3-15.2 103.3-43.5 21.1-21.3 32.8-42.8 39.6-72.8 2.6-11.5 2.9-14.7 2.9-30.1 0-14.8-.4-19-2.5-28.7-3.3-15-5.8-22.3-11.6-34.4-19.8-41.4-58.1-71.4-102.9-80.5-8.1-1.6-13.3-2-29.7-1.9-10.9.1-20.9.4-22.3.6zm49 55.3c28.4 8.1 50.8 30.6 59.6 59.5 2.4 8 2.7 10.6 2.7 24 .1 13.5-.2 15.9-2.6 23.8-8.7 28.4-28.8 49.3-56.5 58.8-9.5 3.3-10.1 3.3-26.7 3.4-18.2 0-22.5-.8-34.8-6.2l-5.8-2.6-21.4 4.7c-11.7 2.6-22.2 4.6-23.2 4.4-2.2-.5-2.4 1.2 3.2-24.3l4.6-21.1-3-7.6c-4.9-12-6.4-19.9-6.3-33.3 0-8.8.5-14.2 2-20.2 8.3-32.6 33.8-57.3 66.8-64.7 9.9-2.2 31.3-1.5 41.4 1.4z"/><path d="M143.5 74.1c-27.1 3.5-48.8 21.6-58.1 48.4-2.5 7-2.8 9.5-2.8 20.5-.1 13.9 1.8 22.3 7.6 33.1l2.9 5.6-3.7 13.7c-2 7.5-3.4 13.9-3.2 14.2.3.2 6.6-1.2 14.1-3.2l13.5-3.6 7.4 3.6c11 5.3 18.7 7 30.8 7 19.7 0 35-6.3 49.1-20.3 14.2-14.2 19.8-26.6 20.7-46 .5-12.2-.5-18.8-4.1-28.1-11.7-30.2-42.6-48.9-74.2-44.9zm-15.3 29.1c1.8 1.5 6.8 16 6.8 19.9 0 1.5-1.2 3.7-3 5.4-3.6 3.5-3.9 7.4-.8 11.8 3.4 4.9 17.8 19.5 22.9 23.3 5.9 4.3 8.7 4.3 13.5-.1 2.1-1.9 4.1-3.5 4.6-3.5.4 0 5.1 1.4 10.3 3 12.8 4.1 14.1 6.6 7.8 14-6.5 7.5-14.7 9.6-26 6.6-18.9-5.1-37.2-20.1-46.5-38.4-9.7-18.9-8.9-32.5 2.3-40.8 3.7-2.7 5.8-3 8.1-1.2z"/></g></svg>