<svg version="1.0" xmlns="http://www.w3.org/2000/svg"
 width="300.000000pt" height="300.000000pt" viewBox="0 0 300.000000 300.000000"
 preserveAspectRatio="xMidYMid meet">

<g transform="translate(0.000000,300.000000) scale(0.100000,-0.100000)"
fill="#2042E2" stroke="none">
<path d="M1270 2953 c-310 -50 -577 -188 -805 -417 -211 -212 -329 -425 -402
-729 -26 -105 -26 -499 0 -607 66 -279 188 -507 376 -702 289 -302 652 -458
1063 -458 391 0 753 152 1033 435 211 213 328 428 396 728 26 115 29 147 29
301 0 148 -4 190 -25 287 -33 150 -58 223 -116 344 -198 414 -581 714 -1029
805 -81 16 -133 20 -297 19 -109 -1 -209 -4 -223 -6z m490 -553 c284 -81 508
-306 596 -595 24 -80 27 -106 27 -240 1 -135 -2 -159 -26 -238 -87 -284 -288
-493 -565 -588 -95 -33 -101 -33 -267 -34 -182 0 -225 8 -348 62 l-58 26 -214
-47 c-117 -26 -222 -46 -232 -44 -22 5 -24 -12 32 243 l46 211 -30 76 c-49
120 -64 199 -63 333 0 88 5 142 20 202 83 326 338 573 668 647 99 22 313 15
414 -14z"/>
<path d="M1435 2259 c-271 -35 -488 -216 -581 -484 -25 -70 -28 -95 -28 -205
-1 -139 18 -223 76 -331 l29 -56 -37 -137 c-20 -75 -34 -139 -32 -142 3 -2 66
12 141 32 l135 36 74 -36 c110 -53 187 -70 308 -70 197 0 350 63 491 203 142
142 198 266 207 460 5 122 -5 188 -41 281 -117 302 -426 489 -742 449z m-153
-291 c18 -15 68 -160 68 -199 0 -15 -12 -37 -30 -54 -36 -35 -39 -74 -8 -118
34 -49 178 -195 229 -233 59 -43 87 -43 135 1 21 19 41 35 46 35 4 0 51 -14
103 -30 128 -41 141 -66 78 -140 -65 -75 -147 -96 -260 -66 -189 51 -372 201
-465 384 -97 189 -89 325 23 408 37 27 58 30 81 12z"/>
</g>
</svg>
